<svg xmlns="http://www.w3.org/2000/svg" viewBox="0 0 1000 1000" preserveAspectRatio="xMidYMid slice">
  
    <defs>
      <linearGradient id="bg" x1="0" y1="0" x2="1" y2="1">
        <stop offset="0" stop-color="#1A1100"/>
        <stop offset="0.55" stop-color="#3D2A00"/>
        <stop offset="1" stop-color="#1A1100"/>
      </linearGradient>
      <radialGradient id="accentGlow" cx="0.8" cy="0.2" r="0.85">
        <stop offset="0" stop-color="#FFB627" stop-opacity="0.45"/>
        <stop offset="0.5" stop-color="#FFB627" stop-opacity="0.12"/>
        <stop offset="1" stop-color="#FFB627" stop-opacity="0"/>
      </radialGradient>
      <filter id="grain" x="0" y="0" width="100%" height="100%">
        <feTurbulence type="fractalNoise" baseFrequency="0.85" numOctaves="2" seed="33" stitchTiles="stitch"/>
        <feColorMatrix values="0 0 0 0 0.96  0 0 0 0 0.94  0 0 0 0 0.92  0 0 0 0.18 0"/>
      </filter>
      <filter id="softblur"><feGaussianBlur stdDeviation="40"/></filter>
    </defs>
    <rect width="1000" height="1000" fill="url(#bg)"/>
    <rect width="1000" height="1000" fill="url(#accentGlow)"/>
    
  <polyline points="0,337.2 12,335.0 24,332.4 36,329.3 48,325.7 60,321.7 72,317.4 84,312.7 96,307.7 108,302.4 120,296.9 132,291.3 144,285.6 156,279.8 168,274.0 180,268.3 192,262.7 204,257.2 216,252.0 228,247.0 240,242.3 252,238.0 264,234.0 276,230.5 288,227.4 300,224.8 312,222.7 324,221.1 336,220.1 348,219.6 360,219.7 372,220.3 384,221.5 396,223.2 408,225.5 420,228.2 432,231.4 444,235.1 456,239.2 468,243.6 480,248.4 492,253.4 504,258.8 516,264.3 528,269.9 540,275.7 552,281.4 564,287.2 576,292.9 588,298.5 600,303.9 612,309.1 624,314.0 636,318.7 648,322.9 660,326.8 672,330.2 684,333.2 696,335.7 708,337.7 720,339.1 732,340.0 744,340.4 756,340.2 768,339.4 780,338.2 792,336.3 804,334.0 816,331.1 828,327.8 840,324.1 852,319.9 864,315.4 876,310.6 888,305.4 900,300.1 912,294.5 924,288.9 936,283.1 948,277.3 960,271.6 972,265.9 984,260.3 996,254.9 1008,249.8" fill="none" stroke="#FFB627" stroke-opacity="0.15" stroke-width="1.2"/><polyline points="0,235.1 12,236.1 24,237.8 36,240.3 48,243.6 60,247.6 72,252.2 84,257.5 96,263.3 108,269.7 120,276.4 132,283.6 144,291.0 156,298.6 168,306.4 180,314.1 192,321.9 204,329.5 216,336.9 228,344.0 240,350.8 252,357.1 264,362.9 276,368.1 288,372.7 300,376.7 312,379.9 324,382.3 336,384.0 348,384.9 360,385.0 372,384.3 384,382.7 396,380.4 408,377.4 420,373.6 432,369.1 444,364.0 456,358.3 468,352.1 480,345.4 492,338.4 504,331.0 516,323.5 528,315.7 540,308.0 552,300.2 564,292.5 576,285.1 588,277.9 600,271.0 612,264.6 624,258.6 636,253.2 648,248.5 660,244.3 672,240.9 684,238.3 696,236.4 708,235.3 720,234.9 732,235.5 744,236.8 756,238.9 768,241.7 780,245.3 792,249.6 804,254.6 816,260.1 828,266.2 840,272.7 852,279.7 864,286.9 876,294.5 888,302.2 900,309.9 912,317.7 924,325.4 936,332.9 948,340.2 960,347.2 972,353.7 984,359.8 996,365.4 1008,370.3" fill="none" stroke="#FFF5DA" stroke-opacity="0.18" stroke-width="1.2"/><polyline points="0,285.2 12,284.9 24,285.3 36,286.4 48,288.1 60,290.4 72,293.3 84,296.8 96,300.8 108,305.3 120,310.2 132,315.5 144,321.1 156,326.9 168,332.8 180,338.9 192,344.9 204,350.9 216,356.8 228,362.5 240,367.9 252,372.9 264,377.6 276,381.8 288,385.5 300,388.6 312,391.2 324,393.1 336,394.4 348,395.0 360,395.0 372,394.3 384,392.9 396,390.9 408,388.3 420,385.1 432,381.3 444,377.1 456,372.4 468,367.3 480,361.9 492,356.2 504,350.3 516,344.3 528,338.2 540,332.2 552,326.3 564,320.5 576,314.9 588,309.7 600,304.8 612,300.4 624,296.4 636,293.0 648,290.1 660,287.8 672,286.2 684,285.2 696,284.9 708,285.3 720,286.3 732,288.0 744,290.2 756,293.1 768,296.6 780,300.6 792,305.1 804,310.0 816,315.2 828,320.8 840,326.6 852,332.5 864,338.6 876,344.6 888,350.6 900,356.5 912,362.2 924,367.6 936,372.7 948,377.3 960,381.6 972,385.3 984,388.5 996,391.0 1008,393.0" fill="none" stroke="#FFF5DA" stroke-opacity="0.21" stroke-width="1.2"/><polyline points="0,388.0 12,384.3 24,380.5 36,376.7 48,372.8 60,368.9 72,365.0 84,361.2 96,357.4 108,353.6 120,350.0 132,346.4 144,342.9 156,339.5 168,336.3 180,333.2 192,330.3 204,327.5 216,324.9 228,322.6 240,320.4 252,318.5 264,316.8 276,315.3 288,314.1 300,313.1 312,312.3 324,311.9 336,311.6 348,311.7 360,311.9 372,312.5 384,313.3 396,314.3 408,315.6 420,317.1 432,318.9 444,320.9 456,323.1 468,325.5 480,328.1 492,330.9 504,333.8 516,337.0 528,340.2 540,343.6 552,347.1 564,350.8 576,354.4 588,358.2 600,362.0 612,365.9 624,369.8 636,373.6 648,377.5 660,381.3 672,385.1 684,388.8 696,392.4 708,395.9 720,399.4 732,402.6 744,405.8 756,408.8 768,411.6 780,414.2 792,416.6 804,418.9 816,420.9 828,422.7 840,424.2 852,425.5 864,426.6 876,427.4 888,428.0 900,428.3 912,428.4 924,428.2 936,427.7 948,427.0 960,426.1 972,424.9 984,423.4 996,421.7 1008,419.8" fill="none" stroke="#FFF5DA" stroke-opacity="0.24" stroke-width="1.2"/><polyline points="0,448.5 12,443.5 24,438.2 36,432.6 48,426.6 60,420.5 72,414.1 84,407.6 96,401.1 108,394.6 120,388.1 132,381.7 144,375.4 156,369.4 168,363.7 180,358.2 192,353.2 204,348.5 216,344.3 228,340.6 240,337.4 252,334.7 264,332.6 276,331.1 288,330.2 300,329.9 312,330.3 324,331.2 336,332.7 348,334.9 360,337.5 372,340.8 384,344.5 396,348.8 408,353.4 420,358.5 432,364.0 444,369.8 456,375.8 468,382.0 480,388.4 492,394.9 504,401.5 516,408.0 528,414.5 540,420.8 552,427.0 564,432.9 576,438.5 588,443.8 600,448.7 612,453.2 624,457.2 636,460.7 648,463.7 660,466.2 672,468.0 684,469.3 696,470.0 708,470.0 720,469.4 732,468.3 744,466.5 756,464.2 768,461.2 780,457.8 792,453.9 804,449.4 816,444.6 828,439.3 840,433.8 852,427.9 864,421.8 876,415.5 888,409.0 900,402.5 912,395.9 924,389.4 936,383.0 948,376.7 960,370.7 972,364.9 984,359.4 996,354.2 1008,349.5" fill="none" stroke="#FFF5DA" stroke-opacity="0.27" stroke-width="1.2"/><polyline points="0,479.4 12,477.4 24,475.3 36,472.9 48,470.3 60,467.6 72,464.6 84,461.5 96,458.3 108,454.9 120,451.4 132,447.8 144,444.1 156,440.4 168,436.6 180,432.7 192,428.9 204,425.0 216,421.2 228,417.5 240,413.7 252,410.1 264,406.6 276,403.1 288,399.8 300,396.7 312,393.6 324,390.8 336,388.1 348,385.7 360,383.4 372,381.4 384,379.6 396,378.0 408,376.7 420,375.6 432,374.8 444,374.3 456,374.0 468,373.9 480,374.2 492,374.7 504,375.4 516,376.4 528,377.7 540,379.2 552,380.9 564,382.9 576,385.1 588,387.5 600,390.1 612,392.9 624,395.9 636,399.0 648,402.3 660,405.7 672,409.2 684,412.8 696,416.5 708,420.2 720,424.0 732,427.9 744,431.7 756,435.6 768,439.4 780,443.1 792,446.8 804,450.5 816,454.0 828,457.4 840,460.7 852,463.8 864,466.8 876,469.6 888,472.2 900,474.7 912,476.9 924,478.9 936,480.7 948,482.2 960,483.5 972,484.5 984,485.3 996,485.8 1008,486.1" fill="none" stroke="#FFB627" stroke-opacity="0.30" stroke-width="1.2"/><polyline points="0,498.6 12,494.5 24,490.1 36,485.5 48,480.7 60,475.7 72,470.6 84,465.4 96,460.2 108,454.9 120,449.7 132,444.6 144,439.6 156,434.8 168,430.2 180,425.8 192,421.6 204,417.8 216,414.3 228,411.1 240,408.4 252,406.0 264,404.0 276,402.5 288,401.5 300,400.8 312,400.7 324,401.0 336,401.8 348,403.0 360,404.7 372,406.8 384,409.3 396,412.2 408,415.5 420,419.1 432,423.0 444,427.3 456,431.8 468,436.5 480,441.4 492,446.4 504,451.5 516,456.8 528,462.0 540,467.2 552,472.4 564,477.4 576,482.4 588,487.1 600,491.7 612,496.0 624,500.0 636,503.7 648,507.1 660,510.1 672,512.7 684,514.9 696,516.6 708,518.0 720,518.8 732,519.3 744,519.2 756,518.7 768,517.8 780,516.4 792,514.5 804,512.2 816,509.6 828,506.5 840,503.1 852,499.3 864,495.2 876,490.9 888,486.3 900,481.5 912,476.6 924,471.5 936,466.3 948,461.1 960,455.9 972,450.7 984,445.5 996,440.5 1008,435.7" fill="none" stroke="#FFF5DA" stroke-opacity="0.33" stroke-width="1.2"/><polyline points="0,509.1 12,503.5 24,497.7 36,492.0 48,486.2 60,480.4 72,474.7 84,469.1 96,463.7 108,458.6 120,453.7 132,449.1 144,444.8 156,440.9 168,437.4 180,434.4 192,431.8 204,429.7 216,428.1 228,427.0 240,426.5 252,426.5 264,427.0 276,428.0 288,429.6 300,431.6 312,434.1 324,437.1 336,440.6 348,444.4 360,448.7 372,453.3 384,458.1 396,463.3 408,468.7 420,474.2 432,479.9 444,485.7 456,491.5 468,497.2 480,503.0 492,508.6 504,514.1 516,519.3 528,524.4 540,529.1 552,533.5 564,537.5 576,541.2 588,544.4 600,547.2 612,549.5 624,551.3 636,552.6 648,553.3 660,553.6 672,553.3 684,552.5 696,551.1 708,549.3 720,547.0 732,544.1 744,540.9 756,537.2 768,533.1 780,528.7 792,523.9 804,518.9 816,513.6 828,508.1 840,502.5 852,496.7 864,490.9 876,485.1 888,479.4 900,473.7 912,468.2 924,462.8 936,457.7 948,452.8 960,448.3 972,444.1 984,440.3 996,436.9 1008,433.9" fill="none" stroke="#FFF5DA" stroke-opacity="0.36" stroke-width="1.2"/><polyline points="0,521.3 12,518.1 24,514.9 36,511.7 48,508.6 60,505.7 72,502.8 84,500.1 96,497.6 108,495.3 120,493.2 132,491.4 144,489.8 156,488.6 168,487.5 180,486.8 192,486.4 204,486.3 216,486.6 228,487.1 240,487.9 252,489.0 264,490.4 276,492.1 288,494.0 300,496.2 312,498.6 324,501.1 336,503.9 348,506.8 360,509.8 372,512.9 384,516.1 396,519.3 408,522.5 420,525.7 432,528.9 444,532.0 456,534.9 468,537.7 480,540.4 492,542.8 504,545.1 516,547.1 528,548.9 540,550.4 552,551.7 564,552.6 576,553.3 588,553.6 600,553.6 612,553.4 624,552.8 636,551.9 648,550.7 660,549.3 672,547.6 684,545.6 696,543.4 708,540.9 720,538.3 732,535.6 744,532.6 756,529.6 768,526.5 780,523.3 792,520.0 804,516.8 816,513.6 828,510.5 840,507.5 852,504.5 864,501.7 876,499.1 888,496.7 900,494.5 912,492.5 924,490.8 936,489.3 948,488.1 960,487.2 972,486.7 984,486.4 996,486.4 1008,486.7" fill="none" stroke="#FFF5DA" stroke-opacity="0.39" stroke-width="1.2"/><polyline points="0,523.2 12,520.2 24,517.6 36,515.4 48,513.7 60,512.5 72,511.7 84,511.5 96,511.9 108,512.7 120,514.0 132,515.8 144,518.1 156,520.8 168,523.9 180,527.3 192,531.0 204,535.0 216,539.2 228,543.6 240,548.0 252,552.5 264,556.9 276,561.2 288,565.4 300,569.4 312,573.1 324,576.5 336,579.5 348,582.2 360,584.4 372,586.2 384,587.4 396,588.2 408,588.5 420,588.2 432,587.4 444,586.2 456,584.4 468,582.2 480,579.5 492,576.5 504,573.1 516,569.3 528,565.4 540,561.2 552,556.9 564,552.4 576,548.0 588,543.6 600,539.2 612,535.0 624,531.0 636,527.3 648,523.8 660,520.7 672,518.1 684,515.8 696,514.0 708,512.7 720,511.8 732,511.5 744,511.7 756,512.5 768,513.7 780,515.4 792,517.6 804,520.2 816,523.2 828,526.6 840,530.3 852,534.2 864,538.4 876,542.7 888,547.1 900,551.6 912,556.0 924,560.4 936,564.6 948,568.6 960,572.4 972,575.8 984,579.0 996,581.7 1008,584.0" fill="none" stroke="#FFF5DA" stroke-opacity="0.43" stroke-width="1.2"/><polyline points="0,607.0 12,602.9 24,598.5 36,593.9 48,589.1 60,584.2 72,579.2 84,574.3 96,569.4 108,564.6 120,560.1 132,555.8 144,551.8 156,548.1 168,544.8 180,542.0 192,539.7 204,537.8 216,536.5 228,535.7 240,535.5 252,535.9 264,536.7 276,538.2 288,540.1 300,542.5 312,545.4 324,548.8 336,552.5 348,556.6 360,560.9 372,565.5 384,570.3 396,575.2 408,580.2 420,585.1 432,590.0 444,594.8 456,599.4 468,603.7 480,607.8 492,611.5 504,614.8 516,617.6 528,620.0 540,622.0 552,623.3 564,624.2 576,624.5 588,624.2 600,623.4 612,622.1 624,620.2 636,617.8 648,615.0 660,611.7 672,608.0 684,604.0 696,599.6 708,595.1 720,590.3 732,585.4 744,580.5 756,575.5 768,570.6 780,565.8 792,561.2 804,556.8 816,552.7 828,549.0 840,545.6 852,542.7 864,540.2 876,538.3 888,536.8 900,535.9 912,535.5 924,535.7 936,536.5 948,537.7 960,539.6 972,541.9 984,544.7 996,547.9 1008,551.5" fill="none" stroke="#FFB627" stroke-opacity="0.46" stroke-width="1.2"/><polyline points="0,647.0 12,642.7 24,638.0 36,633.1 48,628.0 60,622.6 72,617.2 84,611.6 96,606.1 108,600.6 120,595.2 132,589.9 144,584.8 156,580.0 168,575.5 180,571.4 192,567.6 204,564.3 216,561.5 228,559.1 240,557.3 252,556.0 264,555.3 276,555.1 288,555.5 300,556.4 312,557.9 324,559.9 336,562.4 348,565.5 360,568.9 372,572.8 384,577.1 396,581.7 408,586.6 420,591.7 432,597.1 444,602.5 456,608.1 468,613.6 480,619.1 492,624.6 504,629.8 516,634.9 528,639.7 540,644.2 552,648.4 564,652.2 576,655.5 588,658.4 600,660.8 612,662.6 624,663.9 636,664.7 648,664.9 660,664.6 672,663.7 684,662.2 696,660.2 708,657.7 720,654.7 732,651.3 744,647.4 756,643.1 768,638.6 780,633.7 792,628.5 804,623.2 816,617.8 828,612.2 840,606.7 852,601.2 864,595.7 876,590.5 888,585.4 900,580.5 912,576.0 924,571.8 936,568.0 948,564.7 960,561.8 972,559.4 984,557.5 996,556.1 1008,555.3" fill="none" stroke="#FFF5DA" stroke-opacity="0.49" stroke-width="1.2"/><polyline points="0,615.6 12,612.2 24,609.2 36,606.6 48,604.5 60,602.9 72,601.8 84,601.3 96,601.2 108,601.8 120,602.8 132,604.4 144,606.4 156,609.0 168,611.9 180,615.3 192,619.0 204,623.0 216,627.2 228,631.6 240,636.1 252,640.7 264,645.3 276,649.8 288,654.1 300,658.3 312,662.2 324,665.8 336,669.0 348,671.9 360,674.3 372,676.2 384,677.6 396,678.5 408,678.8 420,678.6 432,677.9 444,676.6 456,674.9 468,672.6 480,669.9 492,666.8 504,663.3 516,659.5 528,655.4 540,651.1 552,646.6 564,642.0 576,637.5 588,632.9 600,628.5 612,624.2 624,620.1 636,616.3 648,612.9 660,609.8 672,607.1 684,604.9 696,603.2 708,602.0 720,601.3 732,601.2 744,601.6 756,602.5 768,604.0 780,606.0 792,608.4 804,611.3 816,614.6 828,618.2 840,622.1 852,626.3 864,630.7 876,635.2 888,639.8 900,644.4 912,648.9 924,653.3 936,657.5 948,661.4 960,665.1 972,668.4 984,671.3 996,673.8 1008,675.8" fill="none" stroke="#FFF5DA" stroke-opacity="0.52" stroke-width="1.2"/><polyline points="0,683.3 12,680.7 24,678.1 36,675.3 48,672.4 60,669.6 72,666.7 84,663.9 96,661.1 108,658.5 120,656.0 132,653.6 144,651.5 156,649.6 168,648.0 180,646.6 192,645.5 204,644.7 216,644.3 228,644.1 240,644.3 252,644.8 264,645.5 276,646.6 288,648.0 300,649.7 312,651.6 324,653.7 336,656.1 348,658.6 360,661.2 372,664.0 384,666.8 396,669.7 408,672.5 420,675.4 432,678.2 444,680.8 456,683.4 468,685.8 480,687.9 492,689.9 504,691.6 516,693.1 528,694.2 540,695.1 552,695.6 564,695.9 576,695.8 588,695.4 600,694.7 612,693.7 624,692.4 636,690.8 648,688.9 660,686.9 672,684.6 684,682.1 696,679.5 708,676.8 720,674.0 732,671.1 744,668.2 756,665.4 768,662.6 780,659.9 792,657.3 804,654.9 816,652.6 828,650.6 840,648.8 852,647.3 864,646.1 876,645.1 888,644.5 900,644.1 912,644.1 924,644.5 936,645.1 948,646.0 960,647.3 972,648.8 984,650.5 996,652.6 1008,654.8" fill="none" stroke="#FFF5DA" stroke-opacity="0.55" stroke-width="1.2"/><polyline points="0,730.5 12,731.2 24,731.6 36,731.8 48,731.7 60,731.4 72,730.8 84,730.0 96,728.9 108,727.6 120,726.1 132,724.4 144,722.5 156,720.4 168,718.2 180,715.8 192,713.3 204,710.7 216,708.0 228,705.2 240,702.4 252,699.6 264,696.7 276,693.9 288,691.2 300,688.5 312,685.9 324,683.4 336,681.1 348,678.9 360,676.9 372,675.0 384,673.4 396,671.9 408,670.7 420,669.7 432,669.0 444,668.5 456,668.3 468,668.3 480,668.5 492,669.0 504,669.8 516,670.8 528,672.0 540,673.4 552,675.1 564,676.9 576,679.0 588,681.2 600,683.5 612,686.0 624,688.6 636,691.3 648,694.1 660,696.9 672,699.7 684,702.5 696,705.3 708,708.1 720,710.8 732,713.4 744,715.9 756,718.3 768,720.5 780,722.6 792,724.5 804,726.2 816,727.7 828,729.0 840,730.0 852,730.8 864,731.4 876,731.7 888,731.8 900,731.6 912,731.1 924,730.4 936,729.5 948,728.4 960,727.0 972,725.4 984,723.6 996,721.6 1008,719.4" fill="none" stroke="#FFF5DA" stroke-opacity="0.58" stroke-width="1.2"/><polyline points="0,739.4 12,735.6 24,731.9 36,728.1 48,724.4 60,720.7 72,717.0 84,713.5 96,710.2 108,707.1 120,704.1 132,701.4 144,699.0 156,696.9 168,695.1 180,693.6 192,692.4 204,691.6 216,691.2 228,691.1 240,691.4 252,692.1 264,693.1 276,694.5 288,696.2 300,698.2 312,700.6 324,703.2 336,706.0 348,709.1 360,712.4 372,715.8 384,719.4 396,723.1 408,726.8 420,730.6 432,734.3 444,738.1 456,741.7 468,745.3 480,748.7 492,751.9 504,754.9 516,757.7 528,760.2 540,762.4 552,764.4 564,766.0 576,767.2 588,768.1 600,768.7 612,768.9 624,768.7 636,768.2 648,767.3 660,766.0 672,764.4 684,762.5 696,760.3 708,757.8 720,755.0 732,752.0 744,748.8 756,745.4 768,741.9 780,738.2 792,734.5 804,730.7 816,726.9 828,723.2 840,719.5 852,715.9 864,712.5 876,709.2 888,706.1 900,703.3 912,700.6 924,698.3 936,696.3 948,694.6 960,693.2 972,692.1 984,691.5 996,691.1 1008,691.2" fill="none" stroke="#FFB627" stroke-opacity="0.61" stroke-width="1.2"/><polyline points="0,729.2 12,728.4 24,727.7 36,727.3 48,727.1 60,727.1 72,727.3 84,727.7 96,728.4 108,729.2 120,730.2 132,731.5 144,732.9 156,734.4 168,736.2 180,738.1 192,740.1 204,742.2 216,744.5 228,746.9 240,749.3 252,751.9 264,754.4 276,757.1 288,759.7 300,762.3 312,764.9 324,767.5 336,770.1 348,772.5 360,774.9 372,777.2 384,779.4 396,781.5 408,783.4 420,785.2 432,786.8 444,788.2 456,789.5 468,790.6 480,791.4 492,792.1 504,792.6 516,792.9 528,792.9 540,792.7 552,792.4 564,791.8 576,791.0 588,790.1 600,788.9 612,787.5 624,786.0 636,784.3 648,782.4 660,780.5 672,778.3 684,776.1 696,773.7 708,771.3 720,768.8 732,766.2 744,763.6 756,761.0 768,758.4 780,755.7 792,753.1 804,750.6 816,748.1 828,745.7 840,743.4 852,741.1 864,739.1 876,737.1 888,735.3 900,733.6 912,732.1 924,730.8 936,729.7 948,728.8 960,728.0 972,727.5 984,727.2 996,727.1 1008,727.2" fill="none" stroke="#FFF5DA" stroke-opacity="0.64" stroke-width="1.2"/><polyline points="0,761.6 12,760.0 24,758.6 36,757.2 48,756.0 60,754.9 72,753.9 84,753.1 96,752.4 108,751.9 120,751.6 132,751.3 144,751.3 156,751.4 168,751.6 180,752.0 192,752.6 204,753.3 216,754.1 228,755.1 240,756.3 252,757.5 264,758.9 276,760.4 288,762.1 300,763.8 312,765.6 324,767.6 336,769.6 348,771.7 360,773.9 372,776.2 384,778.5 396,780.8 408,783.2 420,785.6 432,788.1 444,790.5 456,792.9 468,795.4 480,797.8 492,800.1 504,802.5 516,804.8 528,807.0 540,809.1 552,811.2 564,813.2 576,815.1 588,816.9 600,818.6 612,820.2 624,821.7 636,823.0 648,824.2 660,825.3 672,826.2 684,827.0 696,827.7 708,828.1 720,828.5 732,828.7 744,828.7 756,828.6 768,828.3 780,827.9 792,827.3 804,826.6 816,825.7 828,824.7 840,823.5 852,822.3 864,820.8 876,819.3 888,817.7 900,815.9 912,814.0 924,812.1 936,810.0 948,807.9 960,805.7 972,803.4 984,801.1 996,798.8 1008,796.4" fill="none" stroke="#FFF5DA" stroke-opacity="0.67" stroke-width="1.2"/>
  <rect width="1000" height="1000" filter="url(#grain)" opacity="0.55"/>
  
    <g font-family="Inter, system-ui, sans-serif" fill="#FFF5DA" fill-opacity="0.92" font-weight="600">
      <text x="80" y="115" font-size="34" letter-spacing="6">SIRIUSXM</text>
      <text x="80" y="165" font-size="34" letter-spacing="6">PITBULL GLOBALIZATION</text>
      <text x="80" y="215" font-size="34" letter-spacing="6">CHANNEL 13</text>
      <line x1="80" y1="245" x2="220" y2="245" stroke="#FFB627" stroke-opacity="0.9" stroke-width="3"/>
    </g>
    
  
        <line x1="80" y1="305" x2="240" y2="305" stroke="#FFB627" stroke-width="3"/>
        <text x="80" y="420" font-family="Fraunces, Georgia, serif"
              font-size="130" font-style="italic" font-weight="500" fill="#FFF5DA"
              letter-spacing="-4">Vol. 09</text>
        
  
    <g font-family="Inter, system-ui, sans-serif" fill="#FFF5DA" fill-opacity="0.85" font-weight="600">
      <line x1="80" y1="905" x2="920" y2="905" stroke="#FFF5DA" stroke-opacity="0.32" stroke-width="1.5"/>
      <text x="80" y="965" font-size="32" letter-spacing="6">DJ DANNY WEST</text>
      <text x="920" y="965" text-anchor="end" font-size="32" letter-spacing="6">57:55</text>
    </g>
    
</svg>
