<svg xmlns="http://www.w3.org/2000/svg" viewBox="0 0 1000 1000" preserveAspectRatio="xMidYMid slice">
  
    <defs>
      <linearGradient id="bg" x1="0" y1="0" x2="1" y2="1">
        <stop offset="0" stop-color="#0A0E27"/>
        <stop offset="0.55" stop-color="#1B1F4A"/>
        <stop offset="1" stop-color="#0A0E27"/>
      </linearGradient>
      <radialGradient id="accentGlow" cx="0.8" cy="0.2" r="0.85">
        <stop offset="0" stop-color="#7B5BFF" stop-opacity="0.45"/>
        <stop offset="0.5" stop-color="#7B5BFF" stop-opacity="0.12"/>
        <stop offset="1" stop-color="#7B5BFF" stop-opacity="0"/>
      </radialGradient>
      <filter id="grain" x="0" y="0" width="100%" height="100%">
        <feTurbulence type="fractalNoise" baseFrequency="0.85" numOctaves="2" seed="41" stitchTiles="stitch"/>
        <feColorMatrix values="0 0 0 0 0.96  0 0 0 0 0.94  0 0 0 0 0.92  0 0 0 0.18 0"/>
      </filter>
      <filter id="softblur"><feGaussianBlur stdDeviation="40"/></filter>
    </defs>
    <rect width="1000" height="1000" fill="url(#bg)"/>
    <rect width="1000" height="1000" fill="url(#accentGlow)"/>
    
  <polyline points="0,250.0 12,246.1 24,242.5 36,239.2 48,236.3 60,233.6 72,231.4 84,229.5 96,228.0 108,226.9 120,226.2 132,226.0 144,226.1 156,226.7 168,227.7 180,229.1 192,231.0 204,233.2 216,235.7 228,238.7 240,241.9 252,245.4 264,249.2 276,253.3 288,257.5 300,262.0 312,266.6 324,271.2 336,276.0 348,280.8 360,285.5 372,290.3 384,294.9 396,299.5 408,303.8 420,308.0 432,312.0 444,315.7 456,319.2 468,322.3 480,325.1 492,327.6 504,329.7 516,331.4 528,332.6 540,333.5 552,334.0 564,334.0 576,333.6 588,332.8 600,331.6 612,330.0 624,328.0 636,325.6 648,322.8 660,319.7 672,316.3 684,312.7 696,308.7 708,304.6 720,300.2 732,295.7 744,291.1 756,286.3 768,281.6 780,276.8 792,272.0 804,267.3 816,262.7 828,258.3 840,254.0 852,249.9 864,246.1 876,242.5 888,239.2 900,236.2 912,233.6 924,231.3 936,229.4 948,227.9 960,226.9 972,226.2 984,226.0 996,226.1 1008,226.7" fill="none" stroke="#7B5BFF" stroke-opacity="0.15" stroke-width="1.2"/><polyline points="0,280.2 12,277.0 24,273.8 36,270.9 48,268.0 60,265.3 72,262.8 84,260.5 96,258.3 108,256.4 120,254.6 132,253.1 144,251.8 156,250.6 168,249.8 180,249.1 192,248.7 204,248.5 216,248.5 228,248.8 240,249.3 252,250.0 264,251.0 276,252.2 288,253.6 300,255.2 312,257.0 324,259.0 336,261.2 348,263.6 360,266.2 372,268.9 384,271.8 396,274.8 408,278.0 420,281.3 432,284.7 444,288.2 456,291.8 468,295.4 480,299.1 492,302.8 504,306.6 516,310.4 528,314.2 540,317.9 552,321.7 564,325.3 576,329.0 588,332.5 600,336.0 612,339.4 624,342.6 636,345.8 648,348.8 660,351.7 672,354.4 684,356.9 696,359.3 708,361.4 720,363.4 732,365.2 744,366.7 756,368.1 768,369.2 780,370.1 792,370.8 804,371.3 816,371.5 828,371.5 840,371.3 852,370.8 864,370.1 876,369.1 888,368.0 900,366.6 912,365.0 924,363.2 936,361.2 948,359.1 960,356.7 972,354.1 984,351.4 996,348.5 1008,345.5" fill="none" stroke="#F5F0FF" stroke-opacity="0.18" stroke-width="1.2"/><polyline points="0,337.1 12,342.0 24,346.9 36,351.7 48,356.4 60,360.9 72,365.2 84,369.2 96,372.8 108,376.2 120,379.1 132,381.6 144,383.7 156,385.3 168,386.4 180,386.9 192,387.0 204,386.6 216,385.7 228,384.3 240,382.4 252,380.0 264,377.2 276,374.0 288,370.5 300,366.6 312,362.4 324,358.0 336,353.3 348,348.6 360,343.7 372,338.8 384,333.9 396,329.1 408,324.4 420,319.9 432,315.6 444,311.5 456,307.8 468,304.4 480,301.4 492,298.8 504,296.7 516,295.0 528,293.8 540,293.1 552,292.9 564,293.3 576,294.1 588,295.4 600,297.3 612,299.5 624,302.3 636,305.4 648,308.9 660,312.7 672,316.9 684,321.3 696,325.8 708,330.6 720,335.4 732,340.3 744,345.2 756,350.0 768,354.8 780,359.3 792,363.7 804,367.8 816,371.6 828,375.0 840,378.1 852,380.8 864,383.0 876,384.8 888,386.0 900,386.8 912,387.1 924,386.8 936,386.1 948,384.8 960,383.1 972,380.9 984,378.2 996,375.2 1008,371.7" fill="none" stroke="#F5F0FF" stroke-opacity="0.21" stroke-width="1.2"/><polyline points="0,390.0 12,385.7 24,381.3 36,376.8 48,372.3 60,367.8 72,363.4 84,358.9 96,354.5 108,350.2 120,345.9 132,341.8 144,337.9 156,334.0 168,330.4 180,326.9 192,323.7 204,320.7 216,317.9 228,315.4 240,313.2 252,311.2 264,309.5 276,308.1 288,307.0 300,306.2 312,305.8 324,305.6 336,305.8 348,306.2 360,307.0 372,308.1 384,309.5 396,311.2 408,313.1 420,315.4 432,317.9 444,320.7 456,323.7 468,326.9 480,330.4 492,334.0 504,337.8 516,341.8 528,345.9 540,350.1 552,354.5 564,358.9 576,363.3 588,367.8 600,372.3 612,376.8 624,381.3 636,385.7 648,390.0 660,394.2 672,398.3 684,402.3 696,406.1 708,409.7 720,413.2 732,416.4 744,419.4 756,422.2 768,424.7 780,426.9 792,428.9 804,430.6 816,431.9 828,433.0 840,433.8 852,434.3 864,434.4 876,434.2 888,433.7 900,433.0 912,431.9 924,430.5 936,428.8 948,426.8 960,424.5 972,422.0 984,419.2 996,416.2 1008,412.9" fill="none" stroke="#F5F0FF" stroke-opacity="0.24" stroke-width="1.2"/><polyline points="0,443.3 12,443.1 24,442.6 36,441.9 48,440.9 60,439.6 72,438.0 84,436.3 96,434.3 108,432.0 120,429.6 132,427.0 144,424.2 156,421.2 168,418.1 180,414.9 192,411.7 204,408.3 216,404.9 228,401.4 240,398.0 252,394.5 264,391.1 276,387.7 288,384.5 300,381.3 312,378.2 324,375.3 336,372.5 348,369.9 360,367.5 372,365.4 384,363.4 396,361.7 408,360.2 420,358.9 432,358.0 444,357.2 456,356.8 468,356.7 480,356.8 492,357.2 504,357.8 516,358.8 528,360.0 540,361.4 552,363.1 564,365.1 576,367.2 588,369.6 600,372.2 612,374.9 624,377.8 636,380.8 648,384.0 660,387.3 672,390.6 684,394.0 696,397.5 708,400.9 720,404.4 732,407.8 744,411.2 756,414.5 768,417.7 780,420.8 792,423.8 804,426.6 816,429.2 828,431.7 840,433.9 852,436.0 864,437.8 876,439.4 888,440.7 900,441.8 912,442.5 924,443.1 936,443.3 948,443.3 960,443.0 972,442.4 984,441.6 996,440.4 1008,439.1" fill="none" stroke="#F5F0FF" stroke-opacity="0.27" stroke-width="1.2"/><polyline points="0,376.5 12,373.2 24,370.5 36,368.4 48,366.9 60,366.2 72,366.1 84,366.7 96,368.0 108,370.0 120,372.6 132,375.8 144,379.6 156,383.9 168,388.7 180,394.0 192,399.6 204,405.6 216,411.8 228,418.2 240,424.8 252,431.4 264,438.0 276,444.5 288,450.9 300,457.0 312,462.8 324,468.3 336,473.4 348,478.0 360,482.1 372,485.7 384,488.6 396,490.9 408,492.6 420,493.6 432,493.9 444,493.6 456,492.5 468,490.8 480,488.5 492,485.5 504,481.9 516,477.8 528,473.1 540,468.0 552,462.5 564,456.6 576,450.5 588,444.1 600,437.6 612,431.0 624,424.4 636,417.9 648,411.4 660,405.2 672,399.3 684,393.6 696,388.4 708,383.6 720,379.3 732,375.6 744,372.4 756,369.8 768,367.9 780,366.7 792,366.1 804,366.2 816,367.0 828,368.5 840,370.6 852,373.4 864,376.7 876,380.7 888,385.1 900,390.1 912,395.5 924,401.2 936,407.2 948,413.5 960,420.0 972,426.6 984,433.2 996,439.8 1008,446.2" fill="none" stroke="#7B5BFF" stroke-opacity="0.30" stroke-width="1.2"/><polyline points="0,442.0 12,447.3 24,452.7 36,458.3 48,463.9 60,469.4 72,474.8 84,480.0 96,484.9 108,489.5 120,493.7 132,497.5 144,500.7 156,503.4 168,505.6 180,507.1 192,508.0 204,508.3 216,507.9 228,506.8 240,505.2 252,502.9 264,500.1 276,496.7 288,492.9 300,488.6 312,483.9 324,478.9 336,473.7 348,468.2 360,462.7 372,457.1 384,451.6 396,446.2 408,440.9 420,435.9 432,431.3 444,427.0 456,423.2 468,419.8 480,417.0 492,414.7 504,413.1 516,412.1 528,411.7 540,412.0 552,412.9 564,414.5 576,416.6 588,419.4 600,422.6 612,426.4 624,430.6 636,435.2 648,440.2 660,445.4 672,450.8 684,456.3 696,461.9 708,467.4 720,472.9 732,478.2 744,483.2 756,487.9 768,492.3 780,496.2 792,499.6 804,502.6 816,504.9 828,506.6 840,507.8 852,508.2 864,508.1 876,507.3 888,505.8 900,503.8 912,501.2 924,498.0 936,494.3 948,490.2 960,485.6 972,480.7 984,475.6 996,470.2 1008,464.7" fill="none" stroke="#F5F0FF" stroke-opacity="0.33" stroke-width="1.2"/><polyline points="0,523.9 12,519.9 24,515.7 36,511.3 48,506.7 60,502.0 72,497.2 84,492.3 96,487.4 108,482.5 120,477.7 132,473.0 144,468.4 156,464.0 168,459.8 180,455.9 192,452.2 204,448.9 216,445.9 228,443.3 240,441.0 252,439.2 264,437.8 276,436.8 288,436.3 300,436.2 312,436.5 324,437.3 336,438.6 348,440.2 360,442.3 372,444.8 384,447.6 396,450.8 408,454.3 420,458.2 432,462.2 444,466.5 456,471.1 468,475.7 480,480.5 492,485.4 504,490.3 516,495.2 528,500.0 540,504.8 552,509.4 564,513.9 576,518.2 588,522.3 600,526.1 612,529.6 624,532.7 636,535.5 648,538.0 660,540.0 672,541.6 684,542.8 696,543.5 708,543.8 720,543.7 732,543.1 744,542.1 756,540.6 768,538.7 780,536.5 792,533.8 804,530.8 816,527.4 828,523.7 840,519.8 852,515.5 864,511.1 876,506.5 888,501.8 900,497.0 912,492.1 924,487.2 936,482.3 948,477.5 960,472.8 972,468.2 984,463.8 996,459.6 1008,455.7" fill="none" stroke="#F5F0FF" stroke-opacity="0.36" stroke-width="1.2"/><polyline points="0,478.8 12,480.8 24,483.0 36,485.4 48,488.0 60,490.7 72,493.5 84,496.5 96,499.6 108,502.8 120,506.1 132,509.4 144,512.8 156,516.2 168,519.7 180,523.1 192,526.6 204,530.0 216,533.3 228,536.6 240,539.8 252,542.9 264,545.9 276,548.8 288,551.5 300,554.1 312,556.5 324,558.8 336,560.8 348,562.7 360,564.3 372,565.8 384,567.0 396,568.0 408,568.7 420,569.3 432,569.6 444,569.6 456,569.4 468,569.0 480,568.3 492,567.4 504,566.3 516,564.9 528,563.4 540,561.6 552,559.6 564,557.4 576,555.1 588,552.6 600,549.9 612,547.1 624,544.1 636,541.1 648,537.9 660,534.6 672,531.3 684,527.9 696,524.5 708,521.1 720,517.6 732,514.2 744,510.8 756,507.4 768,504.1 780,500.9 792,497.8 804,494.7 816,491.8 828,489.1 840,486.4 852,484.0 864,481.7 876,479.6 888,477.7 900,476.0 912,474.5 924,473.3 936,472.2 948,471.4 960,470.8 972,470.5 984,470.4 996,470.5 1008,470.9" fill="none" stroke="#F5F0FF" stroke-opacity="0.39" stroke-width="1.2"/><polyline points="0,538.2 12,543.2 24,548.2 36,553.2 48,558.2 60,563.2 72,568.0 84,572.6 96,576.9 108,581.0 120,584.8 132,588.1 144,591.1 156,593.7 168,595.8 180,597.4 192,598.5 204,599.1 216,599.2 228,598.8 240,597.9 252,596.5 264,594.5 276,592.1 288,589.3 300,586.1 312,582.4 324,578.5 336,574.2 348,569.7 360,565.0 372,560.1 384,555.1 396,550.1 408,545.0 420,540.0 432,535.2 444,530.4 456,525.9 468,521.6 480,517.7 492,514.0 504,510.8 516,507.9 528,505.5 540,503.6 552,502.1 564,501.2 576,500.8 588,500.8 600,501.4 612,502.6 624,504.2 636,506.2 648,508.8 660,511.8 672,515.2 684,518.9 696,523.0 708,527.3 720,531.9 732,536.7 744,541.6 756,546.6 768,551.7 780,556.7 792,561.7 804,566.5 816,571.2 828,575.6 840,579.8 852,583.6 864,587.1 876,590.3 888,593.0 900,595.2 912,597.0 924,598.2 936,599.0 948,599.3 960,599.0 972,598.2 984,596.9 996,595.2 1008,592.9" fill="none" stroke="#F5F0FF" stroke-opacity="0.43" stroke-width="1.2"/><polyline points="0,571.1 12,575.1 24,579.2 36,583.2 48,587.3 60,591.2 72,595.1 84,598.8 96,602.3 108,605.7 120,608.8 132,611.7 144,614.3 156,616.5 168,618.5 180,620.1 192,621.3 204,622.2 216,622.7 228,622.8 240,622.5 252,621.9 264,620.9 276,619.5 288,617.7 300,615.6 312,613.2 324,610.5 336,607.6 348,604.4 360,600.9 372,597.3 384,593.5 396,589.6 408,585.6 420,581.6 432,577.5 444,573.5 456,569.5 468,565.7 480,561.9 492,558.3 504,554.9 516,551.8 528,548.9 540,546.2 552,543.9 564,541.9 576,540.2 588,538.9 600,537.9 612,537.4 624,537.2 636,537.4 648,538.0 660,538.9 672,540.2 684,541.9 696,543.9 708,546.3 720,548.9 732,551.8 744,555.0 756,558.4 768,562.0 780,565.7 792,569.6 804,573.6 816,577.6 828,581.7 840,585.7 852,589.7 864,593.6 876,597.4 888,601.0 900,604.4 912,607.6 924,610.6 936,613.3 948,615.7 960,617.8 972,619.5 984,620.9 996,621.9 1008,622.5" fill="none" stroke="#7B5BFF" stroke-opacity="0.46" stroke-width="1.2"/><polyline points="0,646.8 12,645.7 24,644.3 36,642.5 48,640.5 60,638.1 72,635.5 84,632.7 96,629.6 108,626.3 120,622.9 132,619.4 144,615.8 156,612.1 168,608.4 180,604.8 192,601.1 204,597.6 216,594.2 228,590.9 240,587.8 252,584.9 264,582.3 276,579.9 288,577.8 300,576.0 312,574.5 324,573.3 336,572.5 348,572.1 360,572.0 372,572.3 384,572.9 396,573.8 408,575.2 420,576.8 432,578.7 444,581.0 456,583.5 468,586.3 480,589.3 492,592.5 504,595.8 516,599.3 528,602.9 540,606.5 552,610.2 564,613.9 576,617.6 588,621.1 600,624.6 612,627.9 624,631.1 636,634.1 648,636.8 660,639.3 672,641.5 684,643.4 696,645.0 708,646.3 720,647.2 732,647.8 744,648.0 756,647.9 768,647.4 780,646.5 792,645.4 804,643.8 816,642.0 828,639.9 840,637.4 852,634.7 864,631.8 876,628.7 888,625.4 900,622.0 912,618.4 924,614.8 936,611.1 948,607.4 960,603.8 972,600.2 984,596.6 996,593.3 1008,590.0" fill="none" stroke="#F5F0FF" stroke-opacity="0.49" stroke-width="1.2"/><polyline points="0,611.9 12,611.5 24,611.2 36,611.1 48,611.1 60,611.3 72,611.5 84,611.9 96,612.5 108,613.1 120,613.9 132,614.8 144,615.9 156,617.0 168,618.2 180,619.6 192,621.0 204,622.5 216,624.1 228,625.8 240,627.6 252,629.4 264,631.2 276,633.1 288,635.0 300,637.0 312,638.9 324,640.9 336,642.8 348,644.8 360,646.7 372,648.6 384,650.5 396,652.3 408,654.0 420,655.7 432,657.3 444,658.8 456,660.3 468,661.6 480,662.9 492,664.0 504,665.1 516,666.0 528,666.8 540,667.5 552,668.0 564,668.4 576,668.7 588,668.9 600,668.9 612,668.8 624,668.6 636,668.2 648,667.7 660,667.0 672,666.3 684,665.4 696,664.4 708,663.3 720,662.1 732,660.8 744,659.4 756,657.9 768,656.3 780,654.6 792,652.9 804,651.1 816,649.3 828,647.4 840,645.5 852,643.6 864,641.6 876,639.6 888,637.7 900,635.7 912,633.8 924,631.9 936,630.0 948,628.2 960,626.5 972,624.8 984,623.1 996,621.6 1008,620.1" fill="none" stroke="#F5F0FF" stroke-opacity="0.52" stroke-width="1.2"/><polyline points="0,699.9 12,703.3 24,706.5 36,709.3 48,711.8 60,714.0 72,715.8 84,717.3 96,718.3 108,719.0 120,719.2 132,719.0 144,718.5 156,717.5 168,716.1 180,714.4 192,712.2 204,709.8 216,707.0 228,703.9 240,700.5 252,696.8 264,693.0 276,688.9 288,684.7 300,680.4 312,676.0 324,671.5 336,667.0 348,662.6 360,658.2 372,653.9 384,649.7 396,645.8 408,642.0 420,638.4 432,635.1 444,632.1 456,629.4 468,627.0 480,625.0 492,623.4 504,622.2 516,621.3 528,620.9 540,620.8 552,621.2 564,622.0 576,623.1 588,624.7 600,626.6 612,628.9 624,631.6 636,634.5 648,637.8 660,641.3 672,645.0 684,649.0 696,653.1 708,657.4 720,661.8 732,666.2 744,670.7 756,675.1 768,679.6 780,683.9 792,688.2 804,692.2 816,696.1 828,699.8 840,703.2 852,706.4 864,709.3 876,711.8 888,714.0 900,715.8 912,717.2 924,718.3 936,719.0 948,719.2 960,719.0 972,718.5 984,717.5 996,716.1 1008,714.4" fill="none" stroke="#F5F0FF" stroke-opacity="0.55" stroke-width="1.2"/><polyline points="0,672.0 12,673.4 24,674.9 36,676.6 48,678.5 60,680.5 72,682.7 84,685.0 96,687.4 108,689.9 120,692.5 132,695.1 144,697.8 156,700.5 168,703.1 180,705.8 192,708.4 204,711.0 216,713.4 228,715.8 240,718.1 252,720.2 264,722.2 276,724.0 288,725.6 300,727.1 312,728.4 324,729.4 336,730.3 348,730.9 360,731.3 372,731.5 384,731.4 396,731.1 408,730.6 420,729.9 432,728.9 444,727.8 456,726.4 468,724.9 480,723.1 492,721.2 504,719.2 516,717.0 528,714.7 540,712.3 552,709.7 564,707.2 576,704.5 588,701.9 600,699.2 612,696.5 624,693.8 636,691.2 648,688.7 660,686.2 672,683.9 684,681.6 696,679.5 708,677.6 720,675.8 732,674.1 744,672.7 756,671.5 768,670.4 780,669.6 792,669.0 804,668.7 816,668.5 828,668.6 840,668.9 852,669.5 864,670.2 876,671.2 888,672.4 900,673.8 912,675.3 924,677.1 936,679.0 948,681.1 960,683.3 972,685.6 984,688.1 996,690.6 1008,693.2" fill="none" stroke="#F5F0FF" stroke-opacity="0.58" stroke-width="1.2"/><polyline points="0,764.0 12,766.1 24,767.7 36,768.9 48,769.6 60,769.9 72,769.6 84,768.9 96,767.7 108,766.1 120,764.0 132,761.5 144,758.6 156,755.3 168,751.8 180,748.0 192,744.0 204,739.8 216,735.5 228,731.1 240,726.7 252,722.4 264,718.1 276,714.0 288,710.1 300,706.4 312,703.0 324,700.0 336,697.3 348,695.0 360,693.1 372,691.6 384,690.7 396,690.2 408,690.2 420,690.6 432,691.6 444,693.0 456,694.9 468,697.2 480,699.8 492,702.9 504,706.3 516,709.9 528,713.8 540,717.9 552,722.2 564,726.5 576,730.9 588,735.3 600,739.6 612,743.8 624,747.8 636,751.6 648,755.2 660,758.4 672,761.3 684,763.9 696,766.0 708,767.6 720,768.9 732,769.6 744,769.9 756,769.7 768,769.0 780,767.8 792,766.2 804,764.1 816,761.6 828,758.8 840,755.6 852,752.1 864,748.3 876,744.3 888,740.1 900,735.8 912,731.4 924,727.0 936,722.7 948,718.4 960,714.3 972,710.4 984,706.7 996,703.3 1008,700.2" fill="none" stroke="#7B5BFF" stroke-opacity="0.61" stroke-width="1.2"/><polyline points="0,741.7 12,738.8 24,736.0 36,733.4 48,730.9 60,728.6 72,726.4 84,724.5 96,722.7 108,721.2 120,719.9 132,718.8 144,718.0 156,717.4 168,717.0 180,716.9 192,717.1 204,717.4 216,718.1 228,719.0 240,720.1 252,721.4 264,723.0 276,724.7 288,726.7 300,728.9 312,731.2 324,733.7 336,736.4 348,739.2 360,742.1 372,745.1 384,748.2 396,751.4 408,754.6 420,757.9 432,761.2 444,764.4 456,767.6 468,770.8 480,774.0 492,777.0 504,780.0 516,782.8 528,785.5 540,788.1 552,790.5 564,792.7 576,794.7 588,796.5 600,798.2 612,799.6 624,800.7 636,801.7 648,802.4 660,802.9 672,803.1 684,803.0 696,802.8 708,802.2 720,801.5 732,800.5 744,799.2 756,797.7 768,796.1 780,794.2 792,792.1 804,789.8 816,787.4 828,784.8 840,782.0 852,779.2 864,776.2 876,773.1 888,770.0 900,766.8 912,763.5 924,760.3 936,757.0 948,753.8 960,750.6 972,747.4 984,744.3 996,741.3 1008,738.4" fill="none" stroke="#F5F0FF" stroke-opacity="0.64" stroke-width="1.2"/><polyline points="0,798.1 12,793.8 24,789.5 36,785.2 48,781.0 60,776.8 72,772.8 84,769.0 96,765.4 108,762.0 120,759.0 132,756.3 144,754.0 156,752.1 168,750.6 180,749.5 192,748.9 204,748.7 216,749.0 228,749.7 240,750.9 252,752.5 264,754.5 276,756.8 288,759.6 300,762.7 312,766.0 324,769.7 336,773.6 348,777.6 360,781.8 372,786.0 384,790.4 396,794.7 408,798.9 420,803.1 432,807.1 444,810.9 456,814.5 468,817.9 480,820.9 492,823.6 504,825.9 516,827.8 528,829.4 540,830.4 552,831.1 564,831.3 576,831.0 588,830.3 600,829.2 612,827.6 624,825.6 636,823.2 648,820.5 660,817.4 672,814.0 684,810.4 696,806.6 708,802.5 720,798.3 732,794.1 744,789.8 756,785.4 768,781.2 780,777.0 792,773.0 804,769.2 816,765.6 828,762.2 840,759.2 852,756.5 864,754.2 876,752.2 888,750.7 900,749.6 912,748.9 924,748.7 936,749.0 948,749.7 960,750.8 972,752.4 984,754.3 996,756.7 1008,759.4" fill="none" stroke="#F5F0FF" stroke-opacity="0.67" stroke-width="1.2"/>
  <rect width="1000" height="1000" filter="url(#grain)" opacity="0.55"/>
  
    <g font-family="Inter, system-ui, sans-serif" fill="#F5F0FF" fill-opacity="0.92" font-weight="600">
      <text x="80" y="115" font-size="34" letter-spacing="6">SIRIUSXM</text>
      <text x="80" y="165" font-size="34" letter-spacing="6">PITBULL GLOBALIZATION</text>
      <text x="80" y="215" font-size="34" letter-spacing="6">CHANNEL 13</text>
      <line x1="80" y1="245" x2="220" y2="245" stroke="#7B5BFF" stroke-opacity="0.9" stroke-width="3"/>
    </g>
    
  
        <line x1="80" y1="305" x2="240" y2="305" stroke="#7B5BFF" stroke-width="3"/>
        <text x="80" y="420" font-family="Fraunces, Georgia, serif"
              font-size="130" font-style="italic" font-weight="500" fill="#F5F0FF"
              letter-spacing="-4">Vol. 14</text>
        
  
    <g font-family="Inter, system-ui, sans-serif" fill="#F5F0FF" fill-opacity="0.85" font-weight="600">
      <line x1="80" y1="905" x2="920" y2="905" stroke="#F5F0FF" stroke-opacity="0.32" stroke-width="1.5"/>
      <text x="80" y="965" font-size="32" letter-spacing="6">DJ DANNY WEST</text>
      <text x="920" y="965" text-anchor="end" font-size="32" letter-spacing="6">59:10</text>
    </g>
    
</svg>
