<svg xmlns="http://www.w3.org/2000/svg" viewBox="0 0 1000 1000" preserveAspectRatio="xMidYMid slice">
  
    <defs>
      <linearGradient id="bg" x1="0" y1="0" x2="1" y2="1">
        <stop offset="0" stop-color="#0F0814"/>
        <stop offset="0.55" stop-color="#241032"/>
        <stop offset="1" stop-color="#0F0814"/>
      </linearGradient>
      <radialGradient id="accentGlow" cx="0.8" cy="0.2" r="0.85">
        <stop offset="0" stop-color="#9B4DCA" stop-opacity="0.45"/>
        <stop offset="0.5" stop-color="#9B4DCA" stop-opacity="0.12"/>
        <stop offset="1" stop-color="#9B4DCA" stop-opacity="0"/>
      </radialGradient>
      <filter id="grain" x="0" y="0" width="100%" height="100%">
        <feTurbulence type="fractalNoise" baseFrequency="0.85" numOctaves="2" seed="63" stitchTiles="stitch"/>
        <feColorMatrix values="0 0 0 0 0.96  0 0 0 0 0.94  0 0 0 0 0.92  0 0 0 0.18 0"/>
      </filter>
      <filter id="softblur"><feGaussianBlur stdDeviation="40"/></filter>
    </defs>
    <rect width="1000" height="1000" fill="url(#bg)"/>
    <rect width="1000" height="1000" fill="url(#accentGlow)"/>
    
  <circle cx="720" cy="720" r="380" fill="#0F0814"/><circle cx="720" cy="720" r="380" fill="url(#accentGlow)" opacity="0.4"/><circle cx="720" cy="720" r="80" fill="none" stroke="#F5EAFF" stroke-opacity="0.10" stroke-width="1"/><circle cx="720" cy="720" r="88" fill="none" stroke="#F5EAFF" stroke-opacity="0.10" stroke-width="1"/><circle cx="720" cy="720" r="96" fill="none" stroke="#F5EAFF" stroke-opacity="0.11" stroke-width="1"/><circle cx="720" cy="720" r="104" fill="none" stroke="#F5EAFF" stroke-opacity="0.11" stroke-width="1"/><circle cx="720" cy="720" r="112" fill="none" stroke="#F5EAFF" stroke-opacity="0.11" stroke-width="1"/><circle cx="720" cy="720" r="120" fill="none" stroke="#F5EAFF" stroke-opacity="0.12" stroke-width="1"/><circle cx="720" cy="720" r="128" fill="none" stroke="#F5EAFF" stroke-opacity="0.12" stroke-width="1"/><circle cx="720" cy="720" r="136" fill="none" stroke="#F5EAFF" stroke-opacity="0.12" stroke-width="1"/><circle cx="720" cy="720" r="144" fill="none" stroke="#F5EAFF" stroke-opacity="0.13" stroke-width="1"/><circle cx="720" cy="720" r="152" fill="none" stroke="#F5EAFF" stroke-opacity="0.13" stroke-width="1"/><circle cx="720" cy="720" r="160" fill="none" stroke="#F5EAFF" stroke-opacity="0.14" stroke-width="1"/><circle cx="720" cy="720" r="168" fill="none" stroke="#F5EAFF" stroke-opacity="0.14" stroke-width="1"/><circle cx="720" cy="720" r="176" fill="none" stroke="#F5EAFF" stroke-opacity="0.14" stroke-width="1"/><circle cx="720" cy="720" r="184" fill="none" stroke="#F5EAFF" stroke-opacity="0.15" stroke-width="1"/><circle cx="720" cy="720" r="192" fill="none" stroke="#F5EAFF" stroke-opacity="0.15" stroke-width="1"/><circle cx="720" cy="720" r="200" fill="none" stroke="#F5EAFF" stroke-opacity="0.15" stroke-width="1"/><circle cx="720" cy="720" r="208" fill="none" stroke="#F5EAFF" stroke-opacity="0.16" stroke-width="1"/><circle cx="720" cy="720" r="216" fill="none" stroke="#F5EAFF" stroke-opacity="0.16" stroke-width="1"/><circle cx="720" cy="720" r="224" fill="none" stroke="#F5EAFF" stroke-opacity="0.17" stroke-width="1"/><circle cx="720" cy="720" r="232" fill="none" stroke="#F5EAFF" stroke-opacity="0.17" stroke-width="1"/><circle cx="720" cy="720" r="240" fill="none" stroke="#F5EAFF" stroke-opacity="0.17" stroke-width="1"/><circle cx="720" cy="720" r="248" fill="none" stroke="#F5EAFF" stroke-opacity="0.18" stroke-width="1"/><circle cx="720" cy="720" r="256" fill="none" stroke="#F5EAFF" stroke-opacity="0.18" stroke-width="1"/><circle cx="720" cy="720" r="264" fill="none" stroke="#F5EAFF" stroke-opacity="0.19" stroke-width="1"/><circle cx="720" cy="720" r="272" fill="none" stroke="#F5EAFF" stroke-opacity="0.19" stroke-width="1"/><circle cx="720" cy="720" r="280" fill="none" stroke="#F5EAFF" stroke-opacity="0.19" stroke-width="1"/><circle cx="720" cy="720" r="288" fill="none" stroke="#F5EAFF" stroke-opacity="0.20" stroke-width="1"/><circle cx="720" cy="720" r="296" fill="none" stroke="#F5EAFF" stroke-opacity="0.20" stroke-width="1"/><circle cx="720" cy="720" r="304" fill="none" stroke="#F5EAFF" stroke-opacity="0.20" stroke-width="1"/><circle cx="720" cy="720" r="312" fill="none" stroke="#F5EAFF" stroke-opacity="0.21" stroke-width="1"/><circle cx="720" cy="720" r="320" fill="none" stroke="#F5EAFF" stroke-opacity="0.21" stroke-width="1"/><circle cx="720" cy="720" r="328" fill="none" stroke="#F5EAFF" stroke-opacity="0.22" stroke-width="1"/><circle cx="720" cy="720" r="336" fill="none" stroke="#F5EAFF" stroke-opacity="0.22" stroke-width="1"/><circle cx="720" cy="720" r="344" fill="none" stroke="#F5EAFF" stroke-opacity="0.22" stroke-width="1"/><circle cx="720" cy="720" r="352" fill="none" stroke="#F5EAFF" stroke-opacity="0.23" stroke-width="1"/><circle cx="720" cy="720" r="360" fill="none" stroke="#F5EAFF" stroke-opacity="0.23" stroke-width="1"/><circle cx="720" cy="720" r="368" fill="none" stroke="#F5EAFF" stroke-opacity="0.23" stroke-width="1"/><circle cx="720" cy="720" r="376" fill="none" stroke="#F5EAFF" stroke-opacity="0.24" stroke-width="1"/><circle cx="720" cy="720" r="80" fill="#9B4DCA"/><circle cx="720" cy="720" r="78" fill="none" stroke="#D89BFF" stroke-opacity="0.5" stroke-width="1"/><circle cx="720" cy="720" r="8" fill="#0F0814"/><text x="720" y="705" text-anchor="middle" font-family="Inter, sans-serif" font-size="22" font-weight="700" letter-spacing="4" fill="#0F0814" fill-opacity="0.95">SIDE A</text><text x="720" y="770" text-anchor="middle" font-family="Inter, sans-serif" font-size="18" font-weight="600" letter-spacing="3" fill="#0F0814" fill-opacity="0.85">VOL · 18</text>
  <rect width="1000" height="1000" filter="url(#grain)" opacity="0.55"/>
  
    <g font-family="Inter, system-ui, sans-serif" fill="#F5EAFF" fill-opacity="0.92" font-weight="600">
      <text x="80" y="115" font-size="34" letter-spacing="6">SIRIUSXM</text>
      <text x="80" y="165" font-size="34" letter-spacing="6">PITBULL GLOBALIZATION</text>
      <text x="80" y="215" font-size="34" letter-spacing="6">CHANNEL 13</text>
      <line x1="80" y1="245" x2="220" y2="245" stroke="#9B4DCA" stroke-opacity="0.9" stroke-width="3"/>
    </g>
    
  
  
    <g font-family="Inter, system-ui, sans-serif" fill="#F5EAFF" fill-opacity="0.85" font-weight="600">
      <line x1="80" y1="905" x2="920" y2="905" stroke="#F5EAFF" stroke-opacity="0.32" stroke-width="1.5"/>
      <text x="80" y="965" font-size="32" letter-spacing="6">DJ DANNY WEST</text>
      <text x="920" y="965" text-anchor="end" font-size="32" letter-spacing="6">59:22</text>
    </g>
    
</svg>
