<svg xmlns="http://www.w3.org/2000/svg" viewBox="0 0 1000 1000" preserveAspectRatio="xMidYMid slice">
  
    <defs>
      <linearGradient id="bg" x1="0" y1="0" x2="1" y2="1">
        <stop offset="0" stop-color="#2A0E0E"/>
        <stop offset="0.55" stop-color="#5C1F1F"/>
        <stop offset="1" stop-color="#2A0E0E"/>
      </linearGradient>
      <radialGradient id="accentGlow" cx="0.8" cy="0.2" r="0.85">
        <stop offset="0" stop-color="#E63946" stop-opacity="0.45"/>
        <stop offset="0.5" stop-color="#E63946" stop-opacity="0.12"/>
        <stop offset="1" stop-color="#E63946" stop-opacity="0"/>
      </radialGradient>
      <filter id="grain" x="0" y="0" width="100%" height="100%">
        <feTurbulence type="fractalNoise" baseFrequency="0.85" numOctaves="2" seed="17" stitchTiles="stitch"/>
        <feColorMatrix values="0 0 0 0 0.96  0 0 0 0 0.94  0 0 0 0 0.92  0 0 0 0.18 0"/>
      </filter>
      <filter id="softblur"><feGaussianBlur stdDeviation="40"/></filter>
    </defs>
    <rect width="1000" height="1000" fill="url(#bg)"/>
    <rect width="1000" height="1000" fill="url(#accentGlow)"/>
    
  <polyline points="0,214.5 12,212.9 24,211.6 36,210.6 48,209.8 60,209.2 72,209.0 84,209.0 96,209.2 108,209.7 120,210.5 132,211.6 144,212.8 156,214.4 168,216.2 180,218.2 192,220.5 204,222.9 216,225.6 228,228.5 240,231.6 252,234.9 264,238.3 276,241.9 288,245.6 300,249.5 312,253.4 324,257.5 336,261.6 348,265.9 360,270.1 372,274.4 384,278.8 396,283.1 408,287.4 420,291.7 432,296.0 444,300.1 456,304.3 468,308.3 480,312.2 492,316.0 504,319.7 516,323.2 528,326.6 540,329.7 552,332.7 564,335.6 576,338.1 588,340.5 600,342.7 612,344.6 624,346.3 636,347.7 648,348.9 660,349.9 672,350.5 684,350.9 696,351.1 708,351.0 720,350.6 732,349.9 744,349.0 756,347.9 768,346.4 780,344.8 792,342.9 804,340.7 816,338.4 828,335.8 840,333.0 852,330.0 864,326.9 876,323.5 888,320.0 900,316.4 912,312.6 924,308.7 936,304.7 948,300.5 960,296.4 972,292.1 984,287.8 996,283.5 1008,279.2" fill="none" stroke="#E63946" stroke-opacity="0.15" stroke-width="1.2"/><polyline points="0,360.9 12,357.1 24,352.8 36,348.1 48,342.8 60,337.2 72,331.2 84,325.0 96,318.7 108,312.2 120,305.7 132,299.2 144,292.9 156,286.8 168,280.9 180,275.4 192,270.3 204,265.7 216,261.6 228,258.0 240,255.1 252,252.8 264,251.2 276,250.3 288,250.1 300,250.6 312,251.8 324,253.7 336,256.2 348,259.4 360,263.2 372,267.5 384,272.3 396,277.6 408,283.3 420,289.2 432,295.4 444,301.8 456,308.3 468,314.8 480,321.3 492,327.6 504,333.7 516,339.5 528,345.0 540,350.0 552,354.6 564,358.7 576,362.2 588,365.1 600,367.3 612,368.9 624,369.7 636,369.9 648,369.3 660,368.1 672,366.2 684,363.6 696,360.3 708,356.5 720,352.1 732,347.3 744,342.0 756,336.3 768,330.3 780,324.1 792,317.7 804,311.2 816,304.7 828,298.3 840,292.0 852,285.9 864,280.1 876,274.6 888,269.6 900,265.0 912,261.0 924,257.6 936,254.7 948,252.5 960,251.0 972,250.2 984,250.1 996,250.7 1008,252.0" fill="none" stroke="#FFEFEF" stroke-opacity="0.18" stroke-width="1.2"/><polyline points="0,289.5 12,291.3 24,293.4 36,295.7 48,298.3 60,301.2 72,304.2 84,307.5 96,310.9 108,314.5 120,318.3 132,322.2 144,326.2 156,330.3 168,334.4 180,338.6 192,342.7 204,346.9 216,351.0 228,355.0 240,359.0 252,362.9 264,366.6 276,370.1 288,373.5 300,376.7 312,379.7 324,382.5 336,385.0 348,387.3 360,389.3 372,391.0 384,392.4 396,393.5 408,394.3 420,394.8 432,395.0 444,394.9 456,394.4 468,393.6 480,392.6 492,391.2 504,389.5 516,387.6 528,385.3 540,382.8 552,380.1 564,377.1 576,374.0 588,370.6 600,367.1 612,363.3 624,359.5 636,355.6 648,351.5 660,347.4 672,343.3 684,339.1 696,334.9 708,330.8 720,326.7 732,322.7 744,318.8 756,315.0 768,311.4 780,307.9 792,304.6 804,301.5 816,298.7 828,296.0 840,293.7 852,291.6 864,289.7 876,288.2 888,286.9 900,286.0 912,285.4 924,285.0 936,285.0 948,285.4 960,286.0 972,286.9 984,288.2 996,289.7 1008,291.6" fill="none" stroke="#FFEFEF" stroke-opacity="0.21" stroke-width="1.2"/><polyline points="0,333.7 12,327.9 24,322.6 36,317.9 48,314.0 60,310.9 72,308.6 84,307.1 96,306.5 108,306.8 120,307.9 132,309.9 144,312.8 156,316.4 168,320.8 180,325.8 192,331.5 204,337.7 216,344.4 228,351.4 240,358.6 252,366.0 264,373.5 276,380.9 288,388.2 300,395.2 312,401.9 324,408.1 336,413.8 348,418.9 360,423.4 372,427.0 384,429.9 396,432.0 408,433.2 420,433.5 432,433.0 444,431.5 456,429.3 468,426.2 480,422.3 492,417.7 504,412.5 516,406.6 528,400.3 540,393.5 552,386.4 564,379.1 576,371.6 588,364.2 600,356.8 612,349.6 624,342.6 636,336.1 648,330.0 660,324.5 672,319.6 684,315.4 696,312.0 708,309.3 720,307.5 732,306.6 744,306.6 756,307.4 768,309.1 780,311.6 792,314.9 804,319.0 816,323.9 828,329.3 840,335.3 852,341.8 864,348.7 876,355.9 888,363.2 900,370.7 912,378.1 924,385.5 936,392.6 948,399.4 960,405.8 972,411.8 984,417.1 996,421.8 1008,425.7" fill="none" stroke="#FFEFEF" stroke-opacity="0.24" stroke-width="1.2"/><polyline points="0,343.5 12,345.5 24,348.1 36,351.2 48,354.9 60,359.1 72,363.8 84,368.8 96,374.2 108,379.9 120,385.8 132,391.9 144,398.0 156,404.2 168,410.4 180,416.4 192,422.2 204,427.8 216,433.1 228,438.0 240,442.5 252,446.5 264,450.0 276,453.0 288,455.3 300,457.1 312,458.2 324,458.7 336,458.5 348,457.7 360,456.2 372,454.1 384,451.4 396,448.2 408,444.4 420,440.1 432,435.4 444,430.2 456,424.8 468,419.1 480,413.1 492,407.0 504,400.9 516,394.7 528,388.6 540,382.6 552,376.8 564,371.3 576,366.0 588,361.2 600,356.8 612,352.8 624,349.4 636,346.6 648,344.3 660,342.7 672,341.7 684,341.3 696,341.6 708,342.6 720,344.1 732,346.3 744,349.1 756,352.5 768,356.3 780,360.7 792,365.5 804,370.7 816,376.2 828,382.0 840,387.9 852,394.0 864,400.2 876,406.4 888,412.5 900,418.4 912,424.2 924,429.7 936,434.8 948,439.6 960,443.9 972,447.8 984,451.1 996,453.9 1008,456.0" fill="none" stroke="#FFEFEF" stroke-opacity="0.27" stroke-width="1.2"/><polyline points="0,489.5 12,489.6 24,489.4 36,489.1 48,488.5 60,487.7 72,486.6 84,485.4 96,483.9 108,482.2 120,480.4 132,478.3 144,476.0 156,473.6 168,470.9 180,468.2 192,465.2 204,462.2 216,459.0 228,455.7 240,452.3 252,448.8 264,445.2 276,441.6 288,438.0 300,434.3 312,430.6 324,426.9 336,423.2 348,419.5 360,415.8 372,412.3 384,408.8 396,405.3 408,402.0 420,398.8 432,395.7 444,392.7 456,389.9 468,387.2 480,384.7 492,382.4 504,380.3 516,378.3 528,376.6 540,375.0 552,373.7 564,372.6 576,371.7 588,371.1 600,370.6 612,370.4 624,370.5 636,370.8 648,371.2 660,372.0 672,372.9 684,374.1 696,375.5 708,377.1 720,378.9 732,380.9 744,383.1 756,385.5 768,388.0 780,390.8 792,393.6 804,396.6 816,399.8 828,403.0 840,406.4 852,409.8 864,413.4 876,417.0 888,420.6 900,424.3 912,428.0 924,431.7 936,435.4 948,439.1 960,442.8 972,446.4 984,449.9 996,453.4 1008,456.7" fill="none" stroke="#E63946" stroke-opacity="0.30" stroke-width="1.2"/><polyline points="0,427.5 12,422.5 24,417.8 36,413.6 48,409.9 60,406.7 72,404.1 84,402.1 96,400.7 108,399.9 120,399.7 132,400.2 144,401.3 156,403.0 168,405.4 180,408.3 192,411.7 204,415.7 216,420.1 228,425.0 240,430.2 252,435.7 264,441.5 276,447.5 288,453.6 300,459.8 312,466.0 324,472.1 336,478.1 348,483.9 360,489.4 372,494.7 384,499.5 396,504.0 408,508.0 420,511.5 432,514.4 444,516.8 456,518.6 468,519.7 480,520.3 492,520.1 504,519.4 516,518.0 528,516.0 540,513.5 552,510.3 564,506.7 576,502.5 588,497.9 600,492.9 612,487.5 624,481.9 636,476.0 648,469.9 660,463.8 672,457.6 684,451.4 696,445.4 708,439.4 720,433.7 732,428.3 744,423.2 756,418.5 768,414.2 780,410.5 792,407.2 804,404.5 816,402.4 828,400.9 840,400.0 852,399.7 864,400.1 876,401.1 888,402.7 900,405.0 912,407.8 924,411.2 936,415.1 948,419.4 960,424.2 972,429.4 984,434.9 996,440.6 1008,446.6" fill="none" stroke="#FFEFEF" stroke-opacity="0.33" stroke-width="1.2"/><polyline points="0,526.1 12,525.5 24,524.6 36,523.3 48,521.6 60,519.7 72,517.5 84,514.9 96,512.2 108,509.2 120,506.0 132,502.7 144,499.2 156,495.7 168,492.1 180,488.4 192,484.8 204,481.3 216,477.8 228,474.4 240,471.2 252,468.2 264,465.4 276,462.9 288,460.6 300,458.6 312,456.9 324,455.6 336,454.6 348,453.9 360,453.6 372,453.7 384,454.1 396,454.9 408,456.1 420,457.6 432,459.4 444,461.5 456,463.8 468,466.5 480,469.4 492,472.5 504,475.7 516,479.1 528,482.6 540,486.2 552,489.9 564,493.5 576,497.1 588,500.6 600,504.0 612,507.3 624,510.4 636,513.3 648,516.0 660,518.4 672,520.5 684,522.3 696,523.8 708,525.0 720,525.8 732,526.3 744,526.4 756,526.1 768,525.5 780,524.5 792,523.2 804,521.5 816,519.6 828,517.3 840,514.8 852,512.0 864,509.0 876,505.8 888,502.5 900,499.0 912,495.5 924,491.8 936,488.2 948,484.6 960,481.1 972,477.6 984,474.2 996,471.0 1008,468.0" fill="none" stroke="#FFEFEF" stroke-opacity="0.36" stroke-width="1.2"/><polyline points="0,553.6 12,553.6 24,553.3 36,552.7 48,551.8 60,550.5 72,549.0 84,547.2 96,545.1 108,542.7 120,540.2 132,537.4 144,534.5 156,531.4 168,528.2 180,524.9 192,521.6 204,518.3 216,514.9 228,511.7 240,508.5 252,505.4 264,502.5 276,499.7 288,497.2 300,494.8 312,492.8 324,490.9 336,489.4 348,488.2 360,487.2 372,486.6 384,486.4 396,486.4 408,486.8 420,487.5 432,488.6 444,489.9 456,491.5 468,493.5 480,495.6 492,498.0 504,500.7 516,503.5 528,506.5 540,509.6 552,512.8 564,516.1 576,519.4 588,522.8 600,526.1 612,529.3 624,532.5 636,535.5 648,538.4 660,541.1 672,543.6 684,545.8 696,547.8 708,549.6 720,551.0 732,552.2 744,553.0 756,553.5 768,553.6 780,553.5 792,553.0 804,552.2 816,551.1 828,549.6 840,547.9 852,545.9 864,543.6 876,541.2 888,538.5 900,535.6 912,532.6 924,529.4 936,526.2 948,522.9 960,519.5 972,516.2 984,512.9 996,509.7 1008,506.6" fill="none" stroke="#FFEFEF" stroke-opacity="0.39" stroke-width="1.2"/><polyline points="0,588.1 12,588.6 24,589.0 36,589.2 48,589.2 60,589.1 72,588.8 84,588.3 96,587.7 108,587.0 120,586.0 132,585.0 144,583.7 156,582.4 168,580.9 180,579.3 192,577.5 204,575.7 216,573.7 228,571.6 240,569.5 252,567.2 264,564.9 276,562.6 288,560.1 300,557.7 312,555.2 324,552.6 336,550.1 348,547.6 360,545.1 372,542.6 384,540.1 396,537.7 408,535.3 420,533.0 432,530.7 444,528.6 456,526.5 468,524.5 480,522.6 492,520.9 504,519.3 516,517.8 528,516.4 540,515.1 552,514.1 564,513.1 576,512.3 588,511.7 600,511.3 612,510.9 624,510.8 636,510.8 648,511.0 660,511.4 672,511.9 684,512.5 696,513.4 708,514.3 720,515.5 732,516.7 744,518.2 756,519.7 768,521.4 780,523.2 792,525.1 804,527.1 816,529.2 828,531.3 840,533.6 852,535.9 864,538.3 876,540.8 888,543.2 900,545.8 912,548.3 924,550.8 936,553.3 948,555.9 960,558.3 972,560.8 984,563.2 996,565.6 1008,567.9" fill="none" stroke="#FFEFEF" stroke-opacity="0.43" stroke-width="1.2"/><polyline points="0,578.2 12,580.3 24,582.4 36,584.5 48,586.5 60,588.5 72,590.5 84,592.5 96,594.3 108,596.1 120,597.9 132,599.5 144,601.1 156,602.5 168,603.9 180,605.1 192,606.3 204,607.3 216,608.1 228,608.9 240,609.5 252,610.0 264,610.3 276,610.5 288,610.5 300,610.4 312,610.2 324,609.8 336,609.3 348,608.6 360,607.8 372,606.9 384,605.9 396,604.7 408,603.4 420,602.0 432,600.5 444,598.9 456,597.3 468,595.5 480,593.7 492,591.8 504,589.8 516,587.8 528,585.8 540,583.7 552,581.6 564,579.6 576,577.5 588,575.4 600,573.3 612,571.3 624,569.3 636,567.4 648,565.5 660,563.7 672,562.0 684,560.4 696,558.8 708,557.4 720,556.0 732,554.8 744,553.7 756,552.7 768,551.8 780,551.1 792,550.5 804,550.0 816,549.7 828,549.5 840,549.5 852,549.6 864,549.8 876,550.2 888,550.8 900,551.4 912,552.2 924,553.1 936,554.2 948,555.4 960,556.7 972,558.1 984,559.6 996,561.2 1008,562.9" fill="none" stroke="#E63946" stroke-opacity="0.46" stroke-width="1.2"/><polyline points="0,658.5 12,658.4 24,658.0 36,657.3 48,656.2 60,654.7 72,652.9 84,650.8 96,648.4 108,645.7 120,642.7 132,639.5 144,636.1 156,632.4 168,628.6 180,624.7 192,620.7 204,616.6 216,612.4 228,608.2 240,604.0 252,599.9 264,595.8 276,591.9 288,588.1 300,584.4 312,581.0 324,577.7 336,574.7 348,572.0 360,569.5 372,567.4 384,565.5 396,564.0 408,562.9 420,562.0 432,561.6 444,561.5 456,561.8 468,562.4 480,563.4 492,564.7 504,566.4 516,568.4 528,570.7 540,573.3 552,576.2 564,579.3 576,582.6 588,586.2 600,589.9 612,593.8 624,597.8 636,601.9 648,606.1 660,610.3 672,614.4 684,618.6 696,622.7 708,626.7 720,630.5 732,634.3 744,637.8 756,641.1 768,644.2 780,647.0 792,649.6 804,651.9 816,653.8 828,655.5 840,656.8 852,657.7 864,658.3 876,658.5 888,658.4 900,657.9 912,657.0 924,655.8 936,654.3 948,652.4 960,650.2 972,647.7 984,644.9 996,641.9 1008,638.6" fill="none" stroke="#FFEFEF" stroke-opacity="0.49" stroke-width="1.2"/><polyline points="0,667.6 12,670.8 24,673.7 36,676.4 48,678.8 60,680.8 72,682.5 84,683.9 96,684.9 108,685.5 120,685.7 132,685.5 144,685.0 156,684.0 168,682.7 180,681.1 192,679.0 204,676.7 216,674.1 228,671.1 240,667.9 252,664.5 264,660.9 276,657.1 288,653.1 300,649.0 312,644.9 324,640.7 336,636.5 348,632.3 360,628.3 372,624.3 384,620.4 396,616.7 408,613.2 420,609.9 432,606.9 444,604.1 456,601.7 468,599.6 480,597.8 492,596.4 504,595.3 516,594.6 528,594.3 540,594.4 552,594.9 564,595.7 576,597.0 588,598.5 600,600.5 612,602.7 624,605.3 636,608.2 648,611.3 660,614.7 672,618.3 684,622.1 696,626.0 708,630.1 720,634.2 732,638.4 744,642.6 756,646.7 768,650.9 780,654.9 792,658.8 804,662.5 816,666.1 828,669.4 840,672.5 852,675.3 864,677.8 876,680.0 888,681.8 900,683.3 912,684.5 924,685.2 936,685.6 948,685.6 960,685.2 972,684.5 984,683.3 996,681.8 1008,680.0" fill="none" stroke="#FFEFEF" stroke-opacity="0.52" stroke-width="1.2"/><polyline points="0,699.4 12,702.2 24,704.6 36,706.5 48,708.0 60,708.9 72,709.3 84,709.1 96,708.5 108,707.3 120,705.6 132,703.4 144,700.8 156,697.8 168,694.4 180,690.6 192,686.6 204,682.3 216,677.9 228,673.4 240,668.8 252,664.3 264,659.8 276,655.5 288,651.3 300,647.5 312,643.9 324,640.6 336,637.8 348,635.4 360,633.5 372,632.0 384,631.1 396,630.7 408,630.8 420,631.5 432,632.7 444,634.4 456,636.5 468,639.2 480,642.2 492,645.6 504,649.3 516,653.4 528,657.6 540,662.0 552,666.5 564,671.1 576,675.7 588,680.1 600,684.5 612,688.6 624,692.5 636,696.1 648,699.3 660,702.2 672,704.6 684,706.5 696,707.9 708,708.9 720,709.3 732,709.2 744,708.5 756,707.3 768,705.6 780,703.5 792,700.9 804,697.8 816,694.4 828,690.7 840,686.7 852,682.4 864,678.0 876,673.5 888,668.9 900,664.4 912,659.9 924,655.6 936,651.4 948,647.5 960,643.9 972,640.7 984,637.9 996,635.5 1008,633.5" fill="none" stroke="#FFEFEF" stroke-opacity="0.55" stroke-width="1.2"/><polyline points="0,738.6 12,739.8 24,740.8 36,741.5 48,742.0 60,742.2 72,742.1 84,741.7 96,741.1 108,740.1 120,739.0 132,737.6 144,735.9 156,734.0 168,731.9 180,729.5 192,727.0 204,724.3 216,721.5 228,718.5 240,715.4 252,712.2 264,708.9 276,705.5 288,702.1 300,698.7 312,695.4 324,692.0 336,688.7 348,685.5 360,682.3 372,679.3 384,676.4 396,673.7 408,671.1 420,668.7 432,666.5 444,664.6 456,662.9 468,661.4 480,660.1 492,659.2 504,658.4 516,658.0 528,657.8 540,657.9 552,658.3 564,659.0 576,659.9 588,661.1 600,662.5 612,664.2 624,666.1 636,668.2 648,670.6 660,673.1 672,675.8 684,678.6 696,681.6 708,684.7 720,688.0 732,691.3 744,694.6 756,698.0 768,701.4 780,704.8 792,708.1 804,711.4 816,714.7 828,717.8 840,720.8 852,723.7 864,726.4 876,729.0 888,731.4 900,733.5 912,735.5 924,737.2 936,738.7 948,739.9 960,740.9 972,741.6 984,742.0 996,742.2 1008,742.0" fill="none" stroke="#FFEFEF" stroke-opacity="0.58" stroke-width="1.2"/><polyline points="0,734.6 12,731.4 24,728.2 36,725.0 48,721.8 60,718.7 72,715.7 84,712.7 96,709.9 108,707.1 120,704.5 132,702.1 144,699.8 156,697.7 168,695.8 180,694.1 192,692.6 204,691.3 216,690.3 228,689.5 240,689.0 252,688.7 264,688.6 276,688.8 288,689.2 300,689.9 312,690.9 324,692.0 336,693.4 348,695.0 360,696.8 372,698.8 384,701.0 396,703.4 408,705.9 420,708.6 432,711.4 444,714.3 456,717.4 468,720.4 480,723.6 492,726.8 504,730.0 516,733.2 528,736.4 540,739.5 552,742.6 564,745.6 576,748.5 588,751.3 600,754.0 612,756.5 624,758.9 636,761.1 648,763.1 660,765.0 672,766.6 684,768.0 696,769.1 708,770.1 720,770.7 732,771.2 744,771.4 756,771.3 768,771.0 780,770.5 792,769.7 804,768.7 816,767.4 828,765.9 840,764.2 852,762.3 864,760.2 876,758.0 888,755.5 900,752.9 912,750.2 924,747.3 936,744.4 948,741.3 960,738.2 972,735.0 984,731.8 996,728.6 1008,725.4" fill="none" stroke="#E63946" stroke-opacity="0.61" stroke-width="1.2"/><polyline points="0,771.6 12,773.4 24,775.1 36,776.7 48,778.1 60,779.4 72,780.4 84,781.3 96,782.0 108,782.5 120,782.8 132,782.9 144,782.8 156,782.4 168,781.9 180,781.2 192,780.2 204,779.1 216,777.9 228,776.4 240,774.8 252,773.1 264,771.2 276,769.3 288,767.3 300,765.2 312,763.0 324,760.8 336,758.7 348,756.5 360,754.3 372,752.3 384,750.2 396,748.3 408,746.5 420,744.8 432,743.2 444,741.8 456,740.6 468,739.5 480,738.6 492,737.9 504,737.5 516,737.2 528,737.1 540,737.2 552,737.6 564,738.1 576,738.9 588,739.8 600,740.9 612,742.2 624,743.6 636,745.2 648,747.0 660,748.8 672,750.8 684,752.8 696,754.9 708,757.1 720,759.3 732,761.4 744,763.6 756,765.7 768,767.8 780,769.8 792,771.8 804,773.6 816,775.3 828,776.8 840,778.2 852,779.5 864,780.5 876,781.4 888,782.1 900,782.6 912,782.8 924,782.9 936,782.8 948,782.4 960,781.9 972,781.1 984,780.2 996,779.0 1008,777.8" fill="none" stroke="#FFEFEF" stroke-opacity="0.64" stroke-width="1.2"/><polyline points="0,802.4 12,800.5 24,798.6 36,796.5 48,794.4 60,792.3 72,790.1 84,787.9 96,785.7 108,783.6 120,781.6 132,779.6 144,777.7 156,776.0 168,774.4 180,773.0 192,771.7 204,770.6 216,769.8 228,769.1 240,768.6 252,768.4 264,768.3 276,768.5 288,769.0 300,769.6 312,770.4 324,771.5 336,772.7 348,774.1 360,775.6 372,777.3 384,779.2 396,781.1 408,783.2 420,785.3 432,787.4 444,789.6 456,791.8 468,793.9 480,796.1 492,798.1 504,800.1 516,802.0 528,803.7 540,805.4 552,806.8 564,808.1 576,809.2 588,810.1 600,810.8 612,811.3 624,811.6 636,811.7 648,811.5 660,811.1 672,810.5 684,809.7 696,808.7 708,807.5 720,806.1 732,804.6 744,802.9 756,801.1 768,799.2 780,797.2 792,795.1 804,792.9 816,790.7 828,788.5 840,786.4 852,784.2 864,782.2 876,780.2 888,778.3 900,776.5 912,774.9 924,773.4 936,772.1 948,770.9 960,770.0 972,769.3 984,768.7 996,768.4 1008,768.3" fill="none" stroke="#FFEFEF" stroke-opacity="0.67" stroke-width="1.2"/>
  <rect width="1000" height="1000" filter="url(#grain)" opacity="0.55"/>
  
    <g font-family="Inter, system-ui, sans-serif" fill="#FFEFEF" fill-opacity="0.92" font-weight="600">
      <text x="80" y="115" font-size="34" letter-spacing="6">SIRIUSXM</text>
      <text x="80" y="165" font-size="34" letter-spacing="6">PITBULL GLOBALIZATION</text>
      <text x="80" y="215" font-size="34" letter-spacing="6">CHANNEL 13</text>
      <line x1="80" y1="245" x2="220" y2="245" stroke="#E63946" stroke-opacity="0.9" stroke-width="3"/>
    </g>
    
  
        <line x1="80" y1="305" x2="240" y2="305" stroke="#E63946" stroke-width="3"/>
        <text x="80" y="420" font-family="Fraunces, Georgia, serif"
              font-size="130" font-style="italic" font-weight="500" fill="#FFEFEF"
              letter-spacing="-4">Vol. 19</text>
        
  
    <g font-family="Inter, system-ui, sans-serif" fill="#FFEFEF" fill-opacity="0.85" font-weight="600">
      <line x1="80" y1="905" x2="920" y2="905" stroke="#FFEFEF" stroke-opacity="0.32" stroke-width="1.5"/>
      <text x="80" y="965" font-size="32" letter-spacing="6">DJ DANNY WEST</text>
      <text x="920" y="965" text-anchor="end" font-size="32" letter-spacing="6">59:20</text>
    </g>
    
</svg>
