<svg xmlns="http://www.w3.org/2000/svg" viewBox="0 0 1000 1000" preserveAspectRatio="xMidYMid slice">
  
    <defs>
      <linearGradient id="bg" x1="0" y1="0" x2="1" y2="1">
        <stop offset="0" stop-color="#1A0F2E"/>
        <stop offset="0.55" stop-color="#3D1B5A"/>
        <stop offset="1" stop-color="#1A0F2E"/>
      </linearGradient>
      <radialGradient id="accentGlow" cx="0.8" cy="0.2" r="0.85">
        <stop offset="0" stop-color="#FF2D75" stop-opacity="0.45"/>
        <stop offset="0.5" stop-color="#FF2D75" stop-opacity="0.12"/>
        <stop offset="1" stop-color="#FF2D75" stop-opacity="0"/>
      </radialGradient>
      <filter id="grain" x="0" y="0" width="100%" height="100%">
        <feTurbulence type="fractalNoise" baseFrequency="0.85" numOctaves="2" seed="73" stitchTiles="stitch"/>
        <feColorMatrix values="0 0 0 0 0.96  0 0 0 0 0.94  0 0 0 0 0.92  0 0 0 0.18 0"/>
      </filter>
      <filter id="softblur"><feGaussianBlur stdDeviation="40"/></filter>
    </defs>
    <rect width="1000" height="1000" fill="url(#bg)"/>
    <rect width="1000" height="1000" fill="url(#accentGlow)"/>
    
  <polyline points="0,285.0 12,289.0 24,292.8 36,296.5 48,300.1 60,303.5 72,306.7 84,309.6 96,312.3 108,314.6 120,316.7 132,318.4 144,319.8 156,320.8 168,321.4 180,321.7 192,321.6 204,321.1 216,320.2 228,319.0 240,317.4 252,315.5 264,313.2 276,310.7 288,307.8 300,304.8 312,301.5 324,297.9 336,294.3 348,290.5 360,286.6 372,282.6 384,278.7 396,274.7 408,270.8 420,267.0 432,263.2 444,259.7 456,256.3 468,253.1 480,250.2 492,247.6 504,245.2 516,243.2 528,241.5 540,240.1 552,239.2 564,238.5 576,238.3 588,238.4 600,239.0 612,239.8 624,241.1 636,242.7 648,244.7 660,246.9 672,249.5 684,252.3 696,255.4 708,258.8 720,262.3 732,266.0 744,269.8 756,273.7 768,277.6 780,281.6 792,285.5 804,289.5 816,293.3 828,297.0 840,300.5 852,303.9 864,307.0 876,309.9 888,312.6 900,314.9 912,316.9 924,318.6 936,319.9 948,320.9 960,321.5 972,321.7 984,321.5 996,321.0 1008,320.1" fill="none" stroke="#FF2D75" stroke-opacity="0.15" stroke-width="1.2"/><polyline points="0,367.0 12,364.9 24,362.0 36,358.3 48,354.0 60,349.0 72,343.6 84,337.6 96,331.2 108,324.6 120,317.7 132,310.8 144,303.8 156,296.9 168,290.2 180,283.8 192,277.7 204,272.1 216,267.1 228,262.6 240,258.8 252,255.7 264,253.4 276,251.9 288,251.2 300,251.3 312,252.2 324,254.0 336,256.5 348,259.8 360,263.8 372,268.5 384,273.7 396,279.4 408,285.6 420,292.1 432,298.9 444,305.8 456,312.8 468,319.7 480,326.5 492,333.1 504,339.3 516,345.2 528,350.5 540,355.3 552,359.4 564,362.9 576,365.6 588,367.5 600,368.6 612,368.9 624,368.3 636,367.0 648,364.8 660,361.9 672,358.2 684,353.9 696,348.9 708,343.4 720,337.5 732,331.1 744,324.5 756,317.6 768,310.6 780,303.7 792,296.8 804,290.1 816,283.7 828,277.6 840,272.0 852,267.0 864,262.5 876,258.7 888,255.7 900,253.4 912,251.9 924,251.2 936,251.3 948,252.3 960,254.0 972,256.6 984,259.9 996,263.9 1008,268.6" fill="none" stroke="#FFE5F0" stroke-opacity="0.18" stroke-width="1.2"/><polyline points="0,290.3 12,296.0 24,302.1 36,308.6 48,315.4 60,322.4 72,329.6 84,336.9 96,344.2 108,351.5 120,358.6 132,365.6 144,372.4 156,378.8 168,384.9 180,390.5 192,395.6 204,400.2 216,404.2 228,407.6 240,410.4 252,412.5 264,413.9 276,414.5 288,414.5 300,413.7 312,412.2 324,410.0 336,407.2 348,403.7 360,399.6 372,394.9 384,389.7 396,384.0 408,377.9 420,371.4 432,364.6 444,357.6 456,350.4 468,343.1 480,335.8 492,328.6 504,321.4 516,314.4 528,307.7 540,301.2 552,295.2 564,289.5 576,284.4 588,279.8 600,275.8 612,272.4 624,269.6 636,267.5 648,266.2 660,265.5 672,265.5 684,266.3 696,267.8 708,269.9 720,272.8 732,276.3 744,280.4 756,285.1 768,290.3 780,296.0 792,302.1 804,308.6 816,315.3 828,322.3 840,329.5 852,336.8 864,344.1 876,351.4 888,358.6 900,365.6 912,372.3 924,378.8 936,384.8 948,390.4 960,395.6 972,400.2 984,404.2 996,407.6 1008,410.4" fill="none" stroke="#FFE5F0" stroke-opacity="0.21" stroke-width="1.2"/><polyline points="0,366.1 12,362.2 24,358.5 36,354.8 48,351.4 60,348.1 72,345.1 84,342.3 96,339.8 108,337.7 120,335.9 132,334.5 144,333.5 156,332.8 168,332.6 180,332.8 192,333.4 204,334.3 216,335.7 228,337.4 240,339.5 252,341.9 264,344.6 276,347.6 288,350.9 300,354.3 312,357.9 324,361.7 336,365.5 348,369.4 360,373.3 372,377.1 384,380.9 396,384.6 408,388.1 420,391.4 432,394.4 444,397.2 456,399.8 468,402.0 480,403.8 492,405.3 504,406.4 516,407.1 528,407.4 540,407.3 552,406.8 564,405.9 576,404.6 588,402.9 600,400.9 612,398.5 624,395.8 636,392.9 648,389.7 660,386.3 672,382.7 684,379.0 696,375.2 708,371.3 720,367.4 732,363.5 744,359.7 756,356.0 768,352.5 780,349.2 792,346.1 804,343.2 816,340.6 828,338.4 840,336.5 852,334.9 864,333.8 876,333.0 888,332.6 900,332.7 912,333.1 924,334.0 936,335.2 948,336.8 960,338.8 972,341.1 984,343.7 996,346.6 1008,349.8" fill="none" stroke="#FFE5F0" stroke-opacity="0.24" stroke-width="1.2"/><polyline points="0,391.8 12,396.5 24,401.2 36,405.9 48,410.6 60,415.1 72,419.6 84,424.0 96,428.2 108,432.2 120,436.0 132,439.5 144,442.8 156,445.7 168,448.4 180,450.7 192,452.7 204,454.3 216,455.6 228,456.4 240,456.9 252,457.0 264,456.7 276,456.1 288,455.0 300,453.6 312,451.8 324,449.6 336,447.1 348,444.3 360,441.2 372,437.8 384,434.1 396,430.2 408,426.1 420,421.8 432,417.4 444,412.8 456,408.2 468,403.5 480,398.8 492,394.1 504,389.4 516,384.8 528,380.4 540,376.0 552,371.8 564,367.8 576,364.0 588,360.5 600,357.2 612,354.3 624,351.6 636,349.3 648,347.3 660,345.7 672,344.4 684,343.6 696,343.1 708,343.0 720,343.3 732,343.9 744,345.0 756,346.4 768,348.3 780,350.4 792,352.9 804,355.7 816,358.9 828,362.3 840,365.9 852,369.8 864,373.9 876,378.2 888,382.6 900,387.2 912,391.8 924,396.5 936,401.2 948,405.9 960,410.6 972,415.2 984,419.7 996,424.0 1008,428.2" fill="none" stroke="#FFE5F0" stroke-opacity="0.27" stroke-width="1.2"/><polyline points="0,377.9 12,375.8 24,374.3 36,373.3 48,373.0 60,373.3 72,374.1 84,375.6 96,377.7 108,380.3 120,383.5 132,387.1 144,391.2 156,395.8 168,400.6 180,405.9 192,411.3 204,417.0 216,422.8 228,428.7 240,434.6 252,440.4 264,446.2 276,451.7 288,457.1 300,462.1 312,466.8 324,471.1 336,475.0 348,478.3 360,481.2 372,483.5 384,485.3 396,486.4 408,487.0 420,486.9 432,486.2 444,485.0 456,483.1 468,480.7 480,477.7 492,474.2 504,470.2 516,465.8 528,461.1 540,456.0 552,450.6 564,445.0 576,439.2 588,433.3 600,427.4 612,421.6 624,415.8 636,410.2 648,404.7 660,399.6 672,394.8 684,390.3 696,386.3 708,382.8 720,379.7 732,377.2 744,375.3 756,373.9 768,373.2 780,373.0 792,373.5 804,374.5 816,376.2 828,378.4 840,381.2 852,384.6 864,388.4 876,392.6 888,397.2 900,402.2 912,407.5 924,413.1 936,418.8 948,424.6 960,430.5 972,436.4 984,442.2 996,447.9 1008,453.4" fill="none" stroke="#FF2D75" stroke-opacity="0.30" stroke-width="1.2"/><polyline points="0,425.6 12,421.6 24,418.1 36,415.1 48,412.6 60,410.7 72,409.4 84,408.6 96,408.5 108,409.0 120,410.0 132,411.7 144,413.9 156,416.7 168,420.0 180,423.8 192,428.0 204,432.6 216,437.5 228,442.6 240,448.0 252,453.5 264,459.1 276,464.7 288,470.3 300,475.7 312,480.9 324,485.9 336,490.6 348,494.9 360,498.8 372,502.3 384,505.2 396,507.6 408,509.5 420,510.8 432,511.4 444,511.5 456,510.9 468,509.8 480,508.1 492,505.7 504,502.9 516,499.5 528,495.7 540,491.5 552,486.8 564,481.9 576,476.7 588,471.3 600,465.8 612,460.2 624,454.6 636,449.1 648,443.6 660,438.4 672,433.5 684,428.8 696,424.6 708,420.7 720,417.3 732,414.4 744,412.1 756,410.3 768,409.1 780,408.5 792,408.5 804,409.2 816,410.4 828,412.2 840,414.6 852,417.5 864,420.9 876,424.8 888,429.1 900,433.8 912,438.7 924,444.0 936,449.4 948,454.9 960,460.5 972,466.1 984,471.6 996,477.0 1008,482.2" fill="none" stroke="#FFE5F0" stroke-opacity="0.33" stroke-width="1.2"/><polyline points="0,472.5 12,469.3 24,466.2 36,463.3 48,460.4 60,457.7 72,455.1 84,452.7 96,450.5 108,448.4 120,446.6 132,444.9 144,443.5 156,442.3 168,441.3 180,440.5 192,439.9 204,439.6 216,439.6 228,439.7 240,440.1 252,440.8 264,441.6 276,442.7 288,444.0 300,445.5 312,447.3 324,449.2 336,451.3 348,453.6 360,456.1 372,458.7 384,461.5 396,464.4 408,467.5 420,470.6 432,473.8 444,477.1 456,480.5 468,483.9 480,487.3 492,490.8 504,494.2 516,497.6 528,501.0 540,504.4 552,507.6 564,510.8 576,513.9 588,516.9 600,519.7 612,522.4 624,525.0 636,527.4 648,529.6 660,531.7 672,533.5 684,535.2 696,536.6 708,537.8 720,538.8 732,539.5 744,540.1 756,540.4 768,540.4 780,540.3 792,539.8 804,539.2 816,538.3 828,537.2 840,535.9 852,534.4 864,532.6 876,530.7 888,528.6 900,526.2 912,523.8 924,521.1 936,518.3 948,515.4 960,512.4 972,509.3 984,506.0 996,502.7 1008,499.4" fill="none" stroke="#FFE5F0" stroke-opacity="0.36" stroke-width="1.2"/><polyline points="0,536.0 12,532.9 24,529.6 36,526.3 48,522.9 60,519.5 72,516.1 84,512.7 96,509.4 108,506.2 120,503.1 132,500.2 144,497.4 156,494.9 168,492.5 180,490.5 192,488.7 204,487.1 216,485.9 228,485.0 240,484.4 252,484.1 264,484.2 276,484.5 288,485.2 300,486.2 312,487.5 324,489.1 336,491.0 348,493.2 360,495.6 372,498.2 384,501.0 396,504.0 408,507.1 420,510.3 432,513.7 444,517.1 456,520.5 468,523.9 480,527.3 492,530.6 504,533.8 516,536.9 528,539.8 540,542.6 552,545.1 564,547.4 576,549.5 588,551.3 600,552.9 612,554.1 624,555.0 636,555.6 648,555.9 660,555.9 672,555.5 684,554.8 696,553.8 708,552.5 720,550.9 732,549.0 744,546.8 756,544.5 768,541.8 780,539.0 792,536.1 804,532.9 816,529.7 828,526.4 840,523.0 852,519.6 864,516.1 876,512.8 888,509.5 900,506.2 912,503.2 924,500.2 936,497.5 948,494.9 960,492.6 972,490.5 984,488.7 996,487.2 1008,485.9" fill="none" stroke="#FFE5F0" stroke-opacity="0.39" stroke-width="1.2"/><polyline points="0,589.6 12,586.1 24,582.3 36,578.2 48,573.8 60,569.2 72,564.4 84,559.5 96,554.5 108,549.4 120,544.4 132,539.4 144,534.5 156,529.8 168,525.2 180,520.9 192,516.8 204,513.1 216,509.6 228,506.6 240,503.9 252,501.6 264,499.8 276,498.5 288,497.6 300,497.2 312,497.2 324,497.8 336,498.8 348,500.3 360,502.2 372,504.6 384,507.4 396,510.5 408,514.1 420,517.9 432,522.1 444,526.5 456,531.1 468,535.9 480,540.8 492,545.8 504,550.8 516,555.9 528,560.9 540,565.7 552,570.5 564,575.0 576,579.3 588,583.4 600,587.1 612,590.6 624,593.6 636,596.3 648,598.5 660,600.3 672,601.6 684,602.5 696,602.9 708,602.8 720,602.2 732,601.1 744,599.6 756,597.7 768,595.3 780,592.5 792,589.3 804,585.7 816,581.8 828,577.7 840,573.2 852,568.6 864,563.8 876,558.9 888,553.9 900,548.9 912,543.8 924,538.9 936,534.0 948,529.3 960,524.7 972,520.4 984,516.4 996,512.6 1008,509.3" fill="none" stroke="#FFE5F0" stroke-opacity="0.43" stroke-width="1.2"/><polyline points="0,575.0 12,578.1 24,581.4 36,584.6 48,587.7 60,590.9 72,594.0 84,597.0 96,599.9 108,602.7 120,605.4 132,607.9 144,610.3 156,612.5 168,614.6 180,616.5 192,618.2 204,619.6 216,620.9 228,622.0 240,622.8 252,623.4 264,623.7 276,623.9 288,623.7 300,623.4 312,622.8 324,622.0 336,621.0 348,619.8 360,618.3 372,616.6 384,614.8 396,612.7 408,610.5 420,608.1 432,605.6 444,602.9 456,600.1 468,597.2 480,594.2 492,591.1 504,588.0 516,584.8 528,581.6 540,578.4 552,575.2 564,572.0 576,568.9 588,565.8 600,562.8 612,559.9 624,557.1 636,554.5 648,551.9 660,549.5 672,547.3 684,545.3 696,543.4 708,541.7 720,540.3 732,539.0 744,538.0 756,537.2 768,536.6 780,536.3 792,536.1 804,536.3 816,536.6 828,537.2 840,538.0 852,539.1 864,540.3 876,541.8 888,543.5 900,545.4 912,547.4 924,549.7 936,552.1 948,554.6 960,557.3 972,560.1 984,563.0 996,566.0 1008,569.1" fill="none" stroke="#FF2D75" stroke-opacity="0.46" stroke-width="1.2"/><polyline points="0,660.5 12,661.2 24,661.5 36,661.5 48,661.1 60,660.3 72,659.3 84,657.8 96,656.0 108,653.9 120,651.5 132,648.8 144,645.9 156,642.6 168,639.2 180,635.5 192,631.7 204,627.7 216,623.6 228,619.4 240,615.1 252,610.8 264,606.5 276,602.2 288,598.0 300,593.8 312,589.8 324,585.9 336,582.2 348,578.7 360,575.3 372,572.3 384,569.5 396,567.0 408,564.7 420,562.8 432,561.3 444,560.0 456,559.1 468,558.6 480,558.5 492,558.7 504,559.2 516,560.1 528,561.4 540,563.0 552,564.9 564,567.2 576,569.7 588,572.5 600,575.6 612,579.0 624,582.5 636,586.3 648,590.2 660,594.2 672,598.4 684,602.6 696,606.9 708,611.2 720,615.5 732,619.8 744,624.0 756,628.1 768,632.1 780,635.9 792,639.5 804,642.9 816,646.1 828,649.1 840,651.8 852,654.1 864,656.2 876,658.0 888,659.4 900,660.4 912,661.1 924,661.5 936,661.5 948,661.1 960,660.4 972,659.3 984,657.9 996,656.1 1008,654.0" fill="none" stroke="#FFE5F0" stroke-opacity="0.49" stroke-width="1.2"/><polyline points="0,652.9 12,649.3 24,645.6 36,641.8 48,638.0 60,634.2 72,630.5 84,626.9 96,623.4 108,620.1 120,616.9 132,614.0 144,611.3 156,608.9 168,606.8 180,605.1 192,603.6 204,602.5 216,601.8 228,601.5 240,601.5 252,601.9 264,602.6 276,603.8 288,605.2 300,607.0 312,609.2 324,611.6 336,614.3 348,617.2 360,620.4 372,623.7 384,627.2 396,630.9 408,634.6 420,638.4 432,642.2 444,645.9 456,649.6 468,653.3 480,656.7 492,660.1 504,663.2 516,666.1 528,668.8 540,671.2 552,673.2 564,675.0 576,676.4 588,677.5 600,678.2 612,678.5 624,678.5 636,678.1 648,677.3 660,676.2 672,674.7 684,672.9 696,670.8 708,668.3 720,665.6 732,662.7 744,659.5 756,656.1 768,652.6 780,649.0 792,645.3 804,641.5 816,637.7 828,633.9 840,630.2 852,626.6 864,623.1 876,619.8 888,616.7 900,613.8 912,611.1 924,608.8 936,606.7 948,604.9 960,603.5 972,602.5 984,601.8 996,601.5 1008,601.5" fill="none" stroke="#FFE5F0" stroke-opacity="0.52" stroke-width="1.2"/><polyline points="0,711.7 12,709.9 24,707.9 36,705.8 48,703.6 60,701.2 72,698.8 84,696.2 96,693.4 108,690.6 120,687.8 132,684.8 144,681.8 156,678.7 168,675.6 180,672.5 192,669.4 204,666.3 216,663.2 228,660.1 240,657.0 252,654.1 264,651.1 276,648.3 288,645.5 300,642.8 312,640.3 324,637.8 336,635.5 348,633.3 360,631.3 372,629.4 384,627.7 396,626.2 408,624.8 420,623.6 432,622.6 444,621.8 456,621.1 468,620.7 480,620.4 492,620.4 504,620.6 516,620.9 528,621.4 540,622.2 552,623.1 564,624.2 576,625.5 588,627.0 600,628.6 612,630.4 624,632.4 636,634.5 648,636.8 660,639.2 672,641.7 684,644.3 696,647.0 708,649.8 720,652.7 732,655.7 744,658.7 756,661.8 768,664.9 780,668.0 792,671.1 804,674.2 816,677.4 828,680.4 840,683.5 852,686.4 864,689.4 876,692.2 888,695.0 900,697.6 912,700.1 924,702.6 936,704.9 948,707.0 960,709.0 972,710.9 984,712.6 996,714.1 1008,715.4" fill="none" stroke="#FFE5F0" stroke-opacity="0.55" stroke-width="1.2"/><polyline points="0,707.8 12,705.5 24,703.2 36,700.9 48,698.6 60,696.2 72,693.9 84,691.6 96,689.4 108,687.2 120,685.0 132,682.9 144,680.9 156,679.0 168,677.1 180,675.3 192,673.6 204,672.0 216,670.6 228,669.2 240,668.0 252,666.9 264,665.9 276,665.0 288,664.3 300,663.8 312,663.4 324,663.1 336,662.9 348,663.0 360,663.1 372,663.4 384,663.9 396,664.4 408,665.2 420,666.0 432,667.0 444,668.2 456,669.4 468,670.8 480,672.3 492,673.9 504,675.6 516,677.4 528,679.3 540,681.2 552,683.3 564,685.4 576,687.6 588,689.8 600,692.0 612,694.3 624,696.6 636,698.9 648,701.3 660,703.6 672,705.9 684,708.2 696,710.4 708,712.6 720,714.8 732,716.9 744,718.9 756,720.9 768,722.8 780,724.6 792,726.3 804,727.8 816,729.3 828,730.7 840,731.9 852,733.1 864,734.0 876,734.9 888,735.6 900,736.2 912,736.6 924,736.9 936,737.1 948,737.1 960,736.9 972,736.6 984,736.2 996,735.6 1008,734.9" fill="none" stroke="#FFE5F0" stroke-opacity="0.58" stroke-width="1.2"/><polyline points="0,728.6 12,731.5 24,734.3 36,737.2 48,739.9 60,742.7 72,745.3 84,747.9 96,750.3 108,752.7 120,754.8 132,756.9 144,758.7 156,760.4 168,761.9 180,763.3 192,764.4 204,765.3 216,766.0 228,766.4 240,766.7 252,766.7 264,766.5 276,766.0 288,765.4 300,764.5 312,763.4 324,762.1 336,760.7 348,759.0 360,757.1 372,755.1 384,753.0 396,750.7 408,748.2 420,745.7 432,743.0 444,740.3 456,737.5 468,734.7 480,731.9 492,729.0 504,726.1 516,723.3 528,720.5 540,717.7 552,715.1 564,712.5 576,710.0 588,707.7 600,705.5 612,703.4 624,701.5 636,699.8 648,698.3 660,696.9 672,695.8 684,694.9 696,694.1 708,693.6 720,693.4 732,693.3 744,693.5 756,693.9 768,694.5 780,695.3 792,696.4 804,697.6 816,699.1 828,700.7 840,702.6 852,704.5 864,706.7 876,709.0 888,711.4 900,713.9 912,716.5 924,719.2 936,722.0 948,724.8 960,727.7 972,730.6 984,733.4 996,736.3 1008,739.1" fill="none" stroke="#FF2D75" stroke-opacity="0.61" stroke-width="1.2"/><polyline points="0,743.2 12,741.2 24,739.3 36,737.6 48,736.1 60,734.7 72,733.4 84,732.4 96,731.5 108,730.9 120,730.4 132,730.1 144,730.0 156,730.1 168,730.5 180,731.0 192,731.7 204,732.6 216,733.7 228,735.0 240,736.4 252,738.0 264,739.8 276,741.7 288,743.7 300,745.8 312,748.0 324,750.3 336,752.6 348,755.0 360,757.5 372,759.9 384,762.4 396,764.8 408,767.3 420,769.6 432,771.9 444,774.1 456,776.2 468,778.3 480,780.1 492,781.9 504,783.5 516,785.0 528,786.2 540,787.3 552,788.3 564,789.0 576,789.5 588,789.8 600,790.0 612,789.9 624,789.6 636,789.2 648,788.5 660,787.6 672,786.6 684,785.4 696,784.0 708,782.4 720,780.7 732,778.9 744,776.9 756,774.8 768,772.6 780,770.4 792,768.0 804,765.6 816,763.2 828,760.7 840,758.3 852,755.8 864,753.4 876,751.0 888,748.7 900,746.5 912,744.3 924,742.3 936,740.4 948,738.6 960,736.9 972,735.4 984,734.1 996,733.0 1008,732.0" fill="none" stroke="#FFE5F0" stroke-opacity="0.64" stroke-width="1.2"/><polyline points="0,812.2 12,813.4 24,814.5 36,815.3 48,816.0 60,816.4 72,816.7 84,816.7 96,816.5 108,816.1 120,815.5 132,814.8 144,813.8 156,812.6 168,811.3 180,809.8 192,808.1 204,806.3 216,804.4 228,802.4 240,800.2 252,798.0 264,795.7 276,793.4 288,791.1 300,788.7 312,786.4 324,784.1 336,781.8 348,779.6 360,777.5 372,775.4 384,773.5 396,771.7 408,770.1 420,768.6 432,767.3 444,766.1 456,765.2 468,764.4 480,763.8 492,763.5 504,763.3 516,763.4 528,763.6 540,764.1 552,764.8 564,765.6 576,766.7 588,767.9 600,769.3 612,770.9 624,772.6 636,774.4 648,776.4 660,778.5 672,780.7 684,782.9 696,785.2 708,787.5 720,789.9 732,792.2 744,794.6 756,796.9 768,799.1 780,801.3 792,803.4 804,805.4 816,807.2 828,809.0 840,810.6 852,812.0 864,813.2 876,814.3 888,815.2 900,815.9 912,816.3 924,816.6 936,816.7 948,816.6 960,816.2 972,815.7 984,814.9 996,814.0 1008,812.9" fill="none" stroke="#FFE5F0" stroke-opacity="0.67" stroke-width="1.2"/>
  <rect width="1000" height="1000" filter="url(#grain)" opacity="0.55"/>
  
    <g font-family="Inter, system-ui, sans-serif" fill="#FFE5F0" fill-opacity="0.92" font-weight="600">
      <text x="80" y="115" font-size="34" letter-spacing="6">SIRIUSXM</text>
      <text x="80" y="165" font-size="34" letter-spacing="6">PITBULL GLOBALIZATION</text>
      <text x="80" y="215" font-size="34" letter-spacing="6">CHANNEL 13</text>
      <line x1="80" y1="245" x2="220" y2="245" stroke="#FF2D75" stroke-opacity="0.9" stroke-width="3"/>
    </g>
    
  
        <line x1="80" y1="305" x2="240" y2="305" stroke="#FF2D75" stroke-width="3"/>
        <text x="80" y="420" font-family="Fraunces, Georgia, serif"
              font-size="130" font-style="italic" font-weight="500" fill="#FFE5F0"
              letter-spacing="-4">Vol. 04</text>
        
  
    <g font-family="Inter, system-ui, sans-serif" fill="#FFE5F0" fill-opacity="0.85" font-weight="600">
      <line x1="80" y1="905" x2="920" y2="905" stroke="#FFE5F0" stroke-opacity="0.32" stroke-width="1.5"/>
      <text x="80" y="965" font-size="32" letter-spacing="6">DJ DANNY WEST</text>
      <text x="920" y="965" text-anchor="end" font-size="32" letter-spacing="6">60:10</text>
    </g>
    
</svg>
