<svg xmlns="http://www.w3.org/2000/svg" viewBox="0 0 1000 1000" preserveAspectRatio="xMidYMid slice">
  
    <defs>
      <linearGradient id="bg" x1="0" y1="0" x2="1" y2="1">
        <stop offset="0" stop-color="#0A0E27"/>
        <stop offset="0.55" stop-color="#1B1F4A"/>
        <stop offset="1" stop-color="#0A0E27"/>
      </linearGradient>
      <radialGradient id="accentGlow" cx="0.8" cy="0.2" r="0.85">
        <stop offset="0" stop-color="#7B5BFF" stop-opacity="0.45"/>
        <stop offset="0.5" stop-color="#7B5BFF" stop-opacity="0.12"/>
        <stop offset="1" stop-color="#7B5BFF" stop-opacity="0"/>
      </radialGradient>
      <filter id="grain" x="0" y="0" width="100%" height="100%">
        <feTurbulence type="fractalNoise" baseFrequency="0.85" numOctaves="2" seed="43" stitchTiles="stitch"/>
        <feColorMatrix values="0 0 0 0 0.96  0 0 0 0 0.94  0 0 0 0 0.92  0 0 0 0.18 0"/>
      </filter>
      <filter id="softblur"><feGaussianBlur stdDeviation="40"/></filter>
    </defs>
    <rect width="1000" height="1000" fill="url(#bg)"/>
    <rect width="1000" height="1000" fill="url(#accentGlow)"/>
    
  <circle cx="720" cy="320" r="160" fill="#C9B8FF" opacity="0.18" filter="url(#softblur)"/><circle cx="720" cy="320" r="90" fill="#C9B8FF" opacity="0.10"/><rect x="0" y="663" width="53" height="337" fill="#0A0E27" opacity="0.95"/><rect x="30" y="721" width="4" height="6" fill="#7B5BFF" opacity="0.54"/><rect x="8" y="777" width="4" height="6" fill="#7B5BFF" opacity="0.78"/><rect x="30" y="805" width="4" height="6" fill="#7B5BFF" opacity="0.52"/><rect x="8" y="861" width="4" height="6" fill="#7B5BFF" opacity="0.84"/><rect x="8" y="889" width="4" height="6" fill="#7B5BFF" opacity="0.70"/><rect x="8" y="917" width="4" height="6" fill="#7B5BFF" opacity="0.76"/><rect x="30" y="917" width="4" height="6" fill="#7B5BFF" opacity="0.59"/><rect x="56" y="768" width="75" height="232" fill="#0A0E27" opacity="0.95"/><rect x="108" y="826" width="4" height="6" fill="#7B5BFF" opacity="0.75"/><rect x="108" y="910" width="4" height="6" fill="#7B5BFF" opacity="0.74"/><rect x="86" y="938" width="4" height="6" fill="#7B5BFF" opacity="0.54"/><rect x="108" y="938" width="4" height="6" fill="#7B5BFF" opacity="0.95"/><rect x="137" y="790" width="75" height="210" fill="#0A0E27" opacity="0.95"/><rect x="145" y="820" width="4" height="6" fill="#7B5BFF" opacity="0.81"/><rect x="167" y="820" width="4" height="6" fill="#7B5BFF" opacity="0.69"/><rect x="189" y="820" width="4" height="6" fill="#7B5BFF" opacity="0.66"/><rect x="145" y="904" width="4" height="6" fill="#7B5BFF" opacity="0.66"/><rect x="167" y="904" width="4" height="6" fill="#7B5BFF" opacity="0.88"/><rect x="145" y="932" width="4" height="6" fill="#7B5BFF" opacity="0.48"/><rect x="214" y="712" width="91" height="288" fill="#0A0E27" opacity="0.95"/><rect x="222" y="742" width="4" height="6" fill="#7B5BFF" opacity="0.79"/><rect x="244" y="770" width="4" height="6" fill="#7B5BFF" opacity="0.71"/><rect x="288" y="770" width="4" height="6" fill="#7B5BFF" opacity="0.45"/><rect x="222" y="798" width="4" height="6" fill="#7B5BFF" opacity="0.41"/><rect x="244" y="798" width="4" height="6" fill="#7B5BFF" opacity="0.68"/><rect x="244" y="826" width="4" height="6" fill="#7B5BFF" opacity="0.93"/><rect x="288" y="826" width="4" height="6" fill="#7B5BFF" opacity="0.54"/><rect x="244" y="854" width="4" height="6" fill="#7B5BFF" opacity="0.51"/><rect x="288" y="854" width="4" height="6" fill="#7B5BFF" opacity="0.80"/><rect x="244" y="882" width="4" height="6" fill="#7B5BFF" opacity="0.91"/><rect x="222" y="910" width="4" height="6" fill="#7B5BFF" opacity="0.75"/><rect x="244" y="910" width="4" height="6" fill="#7B5BFF" opacity="0.67"/><rect x="266" y="910" width="4" height="6" fill="#7B5BFF" opacity="0.61"/><rect x="288" y="938" width="4" height="6" fill="#7B5BFF" opacity="0.75"/><rect x="313" y="622" width="100" height="378" fill="#0A0E27" opacity="0.95"/><rect x="321" y="652" width="4" height="6" fill="#7B5BFF" opacity="0.54"/><rect x="343" y="652" width="4" height="6" fill="#7B5BFF" opacity="0.51"/><rect x="387" y="652" width="4" height="6" fill="#7B5BFF" opacity="0.54"/><rect x="321" y="708" width="4" height="6" fill="#7B5BFF" opacity="0.60"/><rect x="365" y="708" width="4" height="6" fill="#7B5BFF" opacity="0.52"/><rect x="387" y="708" width="4" height="6" fill="#7B5BFF" opacity="0.80"/><rect x="321" y="736" width="4" height="6" fill="#7B5BFF" opacity="0.77"/><rect x="343" y="736" width="4" height="6" fill="#7B5BFF" opacity="0.76"/><rect x="387" y="764" width="4" height="6" fill="#7B5BFF" opacity="0.62"/><rect x="321" y="792" width="4" height="6" fill="#7B5BFF" opacity="0.66"/><rect x="387" y="792" width="4" height="6" fill="#7B5BFF" opacity="0.77"/><rect x="365" y="820" width="4" height="6" fill="#7B5BFF" opacity="0.88"/><rect x="321" y="876" width="4" height="6" fill="#7B5BFF" opacity="0.84"/><rect x="343" y="876" width="4" height="6" fill="#7B5BFF" opacity="0.47"/><rect x="321" y="904" width="4" height="6" fill="#7B5BFF" opacity="0.65"/><rect x="321" y="932" width="4" height="6" fill="#7B5BFF" opacity="0.93"/><rect x="343" y="932" width="4" height="6" fill="#7B5BFF" opacity="0.77"/><rect x="387" y="932" width="4" height="6" fill="#7B5BFF" opacity="0.95"/><rect x="418" y="729" width="40" height="271" fill="#0A0E27" opacity="0.95"/><rect x="426" y="815" width="4" height="6" fill="#7B5BFF" opacity="0.91"/><rect x="448" y="815" width="4" height="6" fill="#7B5BFF" opacity="0.48"/><rect x="461" y="733" width="96" height="267" fill="#0A0E27" opacity="0.95"/><rect x="513" y="791" width="4" height="6" fill="#7B5BFF" opacity="0.42"/><rect x="535" y="819" width="4" height="6" fill="#7B5BFF" opacity="0.52"/><rect x="469" y="847" width="4" height="6" fill="#7B5BFF" opacity="0.54"/><rect x="513" y="847" width="4" height="6" fill="#7B5BFF" opacity="0.45"/><rect x="491" y="875" width="4" height="6" fill="#7B5BFF" opacity="0.77"/><rect x="513" y="903" width="4" height="6" fill="#7B5BFF" opacity="0.81"/><rect x="491" y="931" width="4" height="6" fill="#7B5BFF" opacity="0.60"/><rect x="564" y="765" width="100" height="235" fill="#0A0E27" opacity="0.95"/><rect x="594" y="795" width="4" height="6" fill="#7B5BFF" opacity="0.67"/><rect x="638" y="795" width="4" height="6" fill="#7B5BFF" opacity="0.50"/><rect x="594" y="823" width="4" height="6" fill="#7B5BFF" opacity="0.87"/><rect x="616" y="823" width="4" height="6" fill="#7B5BFF" opacity="0.90"/><rect x="572" y="851" width="4" height="6" fill="#7B5BFF" opacity="0.69"/><rect x="616" y="879" width="4" height="6" fill="#7B5BFF" opacity="0.84"/><rect x="638" y="879" width="4" height="6" fill="#7B5BFF" opacity="0.68"/><rect x="572" y="907" width="4" height="6" fill="#7B5BFF" opacity="0.47"/><rect x="638" y="907" width="4" height="6" fill="#7B5BFF" opacity="0.62"/><rect x="674" y="735" width="85" height="265" fill="#0A0E27" opacity="0.95"/><rect x="748" y="765" width="4" height="6" fill="#7B5BFF" opacity="0.57"/><rect x="704" y="793" width="4" height="6" fill="#7B5BFF" opacity="0.51"/><rect x="748" y="793" width="4" height="6" fill="#7B5BFF" opacity="0.87"/><rect x="682" y="821" width="4" height="6" fill="#7B5BFF" opacity="0.61"/><rect x="726" y="821" width="4" height="6" fill="#7B5BFF" opacity="0.83"/><rect x="726" y="849" width="4" height="6" fill="#7B5BFF" opacity="0.85"/><rect x="682" y="877" width="4" height="6" fill="#7B5BFF" opacity="0.73"/><rect x="704" y="877" width="4" height="6" fill="#7B5BFF" opacity="0.70"/><rect x="704" y="905" width="4" height="6" fill="#7B5BFF" opacity="0.87"/><rect x="682" y="933" width="4" height="6" fill="#7B5BFF" opacity="0.81"/><rect x="704" y="933" width="4" height="6" fill="#7B5BFF" opacity="0.71"/><rect x="726" y="933" width="4" height="6" fill="#7B5BFF" opacity="0.90"/><rect x="748" y="933" width="4" height="6" fill="#7B5BFF" opacity="0.66"/><rect x="768" y="722" width="80" height="278" fill="#0A0E27" opacity="0.95"/><rect x="798" y="780" width="4" height="6" fill="#7B5BFF" opacity="0.68"/><rect x="776" y="808" width="4" height="6" fill="#7B5BFF" opacity="0.67"/><rect x="820" y="808" width="4" height="6" fill="#7B5BFF" opacity="0.59"/><rect x="798" y="836" width="4" height="6" fill="#7B5BFF" opacity="0.81"/><rect x="776" y="864" width="4" height="6" fill="#7B5BFF" opacity="0.70"/><rect x="798" y="892" width="4" height="6" fill="#7B5BFF" opacity="0.55"/><rect x="820" y="892" width="4" height="6" fill="#7B5BFF" opacity="0.81"/><rect x="776" y="920" width="4" height="6" fill="#7B5BFF" opacity="0.74"/><rect x="820" y="920" width="4" height="6" fill="#7B5BFF" opacity="0.88"/><rect x="856" y="625" width="59" height="375" fill="#0A0E27" opacity="0.95"/><rect x="886" y="683" width="4" height="6" fill="#7B5BFF" opacity="0.53"/><rect x="864" y="711" width="4" height="6" fill="#7B5BFF" opacity="0.49"/><rect x="864" y="739" width="4" height="6" fill="#7B5BFF" opacity="0.53"/><rect x="864" y="767" width="4" height="6" fill="#7B5BFF" opacity="0.52"/><rect x="886" y="767" width="4" height="6" fill="#7B5BFF" opacity="0.53"/><rect x="864" y="795" width="4" height="6" fill="#7B5BFF" opacity="0.81"/><rect x="864" y="823" width="4" height="6" fill="#7B5BFF" opacity="0.89"/><rect x="864" y="851" width="4" height="6" fill="#7B5BFF" opacity="0.93"/><rect x="886" y="851" width="4" height="6" fill="#7B5BFF" opacity="0.85"/><rect x="886" y="879" width="4" height="6" fill="#7B5BFF" opacity="0.87"/><rect x="920" y="694" width="46" height="306" fill="#0A0E27" opacity="0.95"/><rect x="950" y="836" width="4" height="6" fill="#7B5BFF" opacity="0.47"/><rect x="950" y="864" width="4" height="6" fill="#7B5BFF" opacity="0.93"/><rect x="928" y="892" width="4" height="6" fill="#7B5BFF" opacity="0.63"/><rect x="950" y="892" width="4" height="6" fill="#7B5BFF" opacity="0.58"/><rect x="968" y="804" width="83" height="196" fill="#0A0E27" opacity="0.95"/><rect x="976" y="834" width="4" height="6" fill="#7B5BFF" opacity="0.93"/><rect x="1042" y="862" width="4" height="6" fill="#7B5BFF" opacity="0.79"/><rect x="976" y="890" width="4" height="6" fill="#7B5BFF" opacity="0.68"/>
  <rect width="1000" height="1000" filter="url(#grain)" opacity="0.55"/>
  
    <g font-family="Inter, system-ui, sans-serif" fill="#F5F0FF" fill-opacity="0.92" font-weight="600">
      <text x="80" y="115" font-size="34" letter-spacing="6">SIRIUSXM</text>
      <text x="80" y="165" font-size="34" letter-spacing="6">PITBULL GLOBALIZATION</text>
      <text x="80" y="215" font-size="34" letter-spacing="6">CHANNEL 13</text>
      <line x1="80" y1="245" x2="220" y2="245" stroke="#7B5BFF" stroke-opacity="0.9" stroke-width="3"/>
    </g>
    
  
        <text x="540" y="540" text-anchor="middle" font-family="Fraunces, Georgia, serif"
              font-size="320" font-style="italic" font-weight="400" fill="#F5F0FF"
              letter-spacing="-14">02</text>
        
  
    <g font-family="Inter, system-ui, sans-serif" fill="#F5F0FF" fill-opacity="0.85" font-weight="600">
      <line x1="80" y1="905" x2="920" y2="905" stroke="#F5F0FF" stroke-opacity="0.32" stroke-width="1.5"/>
      <text x="80" y="965" font-size="32" letter-spacing="6">DJ DANNY WEST</text>
      <text x="920" y="965" text-anchor="end" font-size="32" letter-spacing="6">59:05</text>
    </g>
    
</svg>
